<svg xmlns="http://www.w3.org/2000/svg" xmlns:xlink="http://www.w3.org/1999/xlink" width="103.991" height="66.68" viewBox="0 0 103.991 66.68">
  <defs>
    <clipPath id="clip-path">
      <path id="path2" d="M140.41,89.527h77v65.638h-77Zm0,0" transform="translate(-140.41 -89.527)"/>
    </clipPath>
    <clipPath id="clip-path-2">
      <path id="path5" d="M143.777,91.211h75.136V155.92H143.777Zm0,0" transform="translate(-143.777 -91.211)"/>
    </clipPath>
    <clipPath id="clip-path-3">
      <path id="path8" d="M158,89.379h54.1v37.885H158Zm0,0" transform="translate(-158 -89.379)"/>
    </clipPath>
    <clipPath id="clip-path-4">
      <path id="path11" d="M140,102h55.209v58.83H140Zm0,0" transform="translate(-140 -102)"/>
    </clipPath>
  </defs>
  <g id="Group_190" data-name="Group 190" transform="translate(-218.226 -773.353)">
    <path id="path875" d="M0,225.653c10.038-8.478,9.887-8.392,9.887-8.392l88.034.171,6.07,8.222Z" transform="translate(218.226 614.38)" fill="#26456e"/>
    <g id="arms" transform="translate(232.134 773.353)">
      <g id="g18" transform="translate(0.226 0.082)" clip-path="url(#clip-path)">
        <path id="path16" d="M217.376,130.2c-.334-1.626-2.027-2.463-3.4-3.345a13.5,13.5,0,0,1-3.713-3.567,12.211,12.211,0,0,0-1.51-1.984,2.49,2.49,0,0,0-2.245-.733,6.456,6.456,0,0,0-1.732,1.091,3.606,3.606,0,0,1-.378.222c-.274-.175-.552-.339-.832-.5a27.848,27.848,0,0,0-15.685-3.629,48.9,48.9,0,0,0,12.4-13.481c1.346-2.182,2.56-4.648,2.265-7.194a8.167,8.167,0,0,0-4.279-5.929,14.989,14.989,0,0,0-7.331-1.628,27.7,27.7,0,0,0-7.3,1A32.887,32.887,0,0,0,173.984,95a37.924,37.924,0,0,0-3.352,2.541,41.85,41.85,0,0,0-3.319,3.14,52.07,52.07,0,0,0-5.752,7.3,22.838,22.838,0,0,1-2.595,3.47,7.447,7.447,0,0,1-1.272,1.063,5.283,5.283,0,0,1-1.033.539,2.965,2.965,0,0,0,.028-.369,4.548,4.548,0,0,0-1.147-3.048,3.143,3.143,0,0,0,1.223-.239,3.6,3.6,0,0,0,1.874-1.749,4.315,4.315,0,0,0-.349-4.089,4.706,4.706,0,0,0-3.77-2.178,4.287,4.287,0,0,0-3.776,2.092,3.957,3.957,0,0,0-.362,2.924,3.575,3.575,0,0,0,.541,1.18,10.5,10.5,0,0,0-5.618,1.949,11.11,11.11,0,0,0-4.518,5.5,6.739,6.739,0,0,0,1.307,6.763c.076.076.153.151.233.222a11.855,11.855,0,0,0,4.3,2.129l1.348.451q.916,1.132,1.833,2.265a1.371,1.371,0,0,0,.852.617.935.935,0,0,0,.893-.649,2.4,2.4,0,0,0,.1-1.007q1.058.356,2.117.707a3.263,3.263,0,0,0,1.941.233c1.186-.356,1.557-1.876,1.4-3.1-.058-.436-.157-.873-.25-1.309q3.384-1.928,6.569-4.184a11.894,11.894,0,0,0,1.345,1.611c1.359,1.378,2.95,2.495,4.391,3.782a32.784,32.784,0,0,1,7.962,11.663,87.407,87.407,0,0,1,3.9,11.956,7.059,7.059,0,0,1-1.9.764c-1.291.309-2.652.248-3.935.585a6.529,6.529,0,0,0-1.286.488.829.829,0,0,0-.321,1.184s0,0-.006,0c-.095.088.034.16.125.142a.8.8,0,0,0,.438.224,14.444,14.444,0,0,0,2.933.11q2.3-.084,4.6-.164a1.823,1.823,0,0,1-.2.634c-.675,1.229-2.441,1.059-3.843,1.033a9.3,9.3,0,0,0-4.9,1.324.775.775,0,0,0,.3,1.434l.2.024c.017.08.177.095.25.028a28.9,28.9,0,0,0,12.543-1.374,68.008,68.008,0,0,0-1.072-12.792,37.149,37.149,0,0,0-3.252-11.376,20.865,20.865,0,0,0-2.672-3.953,7.653,7.653,0,0,0,.845.131,30.359,30.359,0,0,0,4.963-.2,50.865,50.865,0,0,1,8.18.335q5.04.479,10.076,1.026c.047,0,.095.009.142.015a25.159,25.159,0,0,1,6.724,1.365c2.165.873,4.117,2.344,6.4,2.829.367.076.839.078,1.01-.266a.828.828,0,0,0,.028-.522" transform="translate(-140.409 -89.527)" fill="#f8a87b"/>
      </g>
      <path id="path20" d="M202.318,115.833q-1.507,2.225-3.015,4.453a17.317,17.317,0,0,0-2.472,4.581,7.628,7.628,0,0,0-.308,1.781,8.5,8.5,0,0,1-2.912-4.587,35.983,35.983,0,0,1-.8-6.586,15.99,15.99,0,0,0-1.124-5.1,7.567,7.567,0,0,0-2.545-3.188,41.857,41.857,0,0,1,3.319-3.14,17.531,17.531,0,0,1,9.858,11.786" transform="translate(-162.011 -95.949)" fill="#f9e785"/>
      <g id="g24" transform="translate(2.085 1.011)" clip-path="url(#clip-path-2)">
        <path id="path22" d="M182.046,110.14q2.371-3.494,4.736-6.986A20.829,20.829,0,0,1,185.2,91.336a32.887,32.887,0,0,0-9.664,4.477,37.927,37.927,0,0,0-3.352,2.541A17.531,17.531,0,0,1,182.046,110.14Zm1.195,20.114a20.866,20.866,0,0,0-2.672-3.953,5.5,5.5,0,0,1-3.468-2.087,5.263,5.263,0,0,1-.85-3.259,8.5,8.5,0,0,1-2.912-4.587,35.984,35.984,0,0,1-.8-6.586,15.989,15.989,0,0,0-1.124-5.1,7.567,7.567,0,0,0-2.545-3.188,52.071,52.071,0,0,0-5.752,7.3,22.838,22.838,0,0,1-2.595,3.47,10.282,10.282,0,0,0,3.2,3.981,6.38,6.38,0,0,0,.244.822,7.253,7.253,0,0,1-4.721-3.74,5.282,5.282,0,0,1-1.033.539,3.376,3.376,0,0,1-.356.12,7.511,7.511,0,0,1-3.408,2.26,2.879,2.879,0,0,0-1.143-1.179,2.033,2.033,0,0,0-2.513.418,2.556,2.556,0,0,0-.1,2.489,18.764,18.764,0,0,1-3.563,3.52,7.691,7.691,0,0,1-3.254,1.331,11.856,11.856,0,0,0,4.3,2.129l1.348.451q1.838.611,3.675,1.225,1.058.356,2.117.707a3.264,3.264,0,0,0,1.941.233c1.186-.356,1.557-1.876,1.4-3.1-.058-.436-.157-.873-.25-1.309q3.384-1.928,6.569-4.184a11.893,11.893,0,0,0,1.345,1.611c1.359,1.378,2.95,2.495,4.391,3.782a32.745,32.745,0,0,1,7.962,11.663,87.305,87.305,0,0,1,3.9,11.956c.142.533.282,1.061.422,1.594a4.574,4.574,0,0,1,.222,1.742,1.823,1.823,0,0,1-.2.634c-.675,1.229-2.441,1.059-3.843,1.033a9.3,9.3,0,0,0-4.9,1.324.775.775,0,0,0,.3,1.434,28.913,28.913,0,0,0,12.993-1.322,68.009,68.009,0,0,0-1.072-12.792A37.148,37.148,0,0,0,183.241,130.254Zm35.664,1.281c-.171.343-.643.341-1.01.266-2.279-.485-4.231-1.956-6.4-2.829a25.158,25.158,0,0,0-6.724-1.365c-.047-.006-.095-.011-.142-.015a11.886,11.886,0,0,0,.578-4.607c-.022-.263-.047-.526-.086-.785.28.16.558.324.832.5a3.6,3.6,0,0,0,.378-.222,6.457,6.457,0,0,1,1.732-1.091,2.49,2.49,0,0,1,2.245.733,12.209,12.209,0,0,1,1.51,1.984,13.5,13.5,0,0,0,3.713,3.567c1.371.882,3.065,1.719,3.4,3.345a.828.828,0,0,1-.028.522" transform="translate(-143.824 -91.267)" fill="#f8a87b"/>
      </g>
      <path id="path26" d="M176.2,133.215a6.384,6.384,0,0,0,.244.822,7.253,7.253,0,0,1-4.721-3.74,7.447,7.447,0,0,0,1.272-1.063,10.282,10.282,0,0,0,3.2,3.981" transform="translate(-154.207 -107.23)" fill="#f9e785"/>
      <g id="g30" transform="translate(9.938 0)" clip-path="url(#clip-path-3)">
        <path id="path28" d="M158.473,106.4a3.574,3.574,0,0,0,.541,1.18,6.75,6.75,0,0,1,1.6.174,5.7,5.7,0,0,1,3.017,1.885,3.143,3.143,0,0,0,1.223-.239A6.461,6.461,0,0,0,158.473,106.4Zm52.692,20.384q-5.033-.543-10.073-1.026a50.866,50.866,0,0,0-8.18-.335,30.369,30.369,0,0,1-4.963.2,7.652,7.652,0,0,1-.845-.131,5.5,5.5,0,0,1-3.468-2.087,5.263,5.263,0,0,1-.85-3.259,7.514,7.514,0,0,1,.308-1.781,17.317,17.317,0,0,1,2.472-4.581q1.507-2.229,3.015-4.453,2.371-3.494,4.736-6.986a20.81,20.81,0,0,1-1.578-11.818,27.7,27.7,0,0,1,7.3-1,14.994,14.994,0,0,1,7.331,1.628,8.167,8.167,0,0,1,4.279,5.929c.3,2.547-.919,5.012-2.265,7.194a48.9,48.9,0,0,1-12.4,13.481,27.852,27.852,0,0,1,15.685,3.629c.039.259.065.522.086.785a11.877,11.877,0,0,1-.58,4.607" transform="translate(-158.212 -89.445)" fill="#225185"/>
      </g>
      <path id="path32" d="M154.113,153.035q.916,1.132,1.833,2.265a1.371,1.371,0,0,0,.852.617.935.935,0,0,0,.893-.649,2.4,2.4,0,0,0,.1-1.007Q155.947,153.649,154.113,153.035Zm33.691,25.92q-2.3.081-4.6.164a14.467,14.467,0,0,1-2.935-.11.83.83,0,0,1-.233-1.555,6.477,6.477,0,0,1,1.286-.488c1.283-.337,2.644-.276,3.934-.585a7.069,7.069,0,0,0,1.9-.764c.142.533.282,1.061.422,1.594a4.574,4.574,0,0,1,.223,1.742" transform="translate(-146.321 -117.891)" fill="#f58442"/>
      <g id="g36" transform="translate(0 6.968)" clip-path="url(#clip-path-4)">
        <path id="path34" d="M152.525,113.555a6.75,6.75,0,0,0-1.6-.174,10.5,10.5,0,0,0-5.618,1.949,11.11,11.11,0,0,0-4.518,5.5,6.739,6.739,0,0,0,1.307,6.763c.076.076.153.151.233.222a7.691,7.691,0,0,0,3.254-1.331,18.764,18.764,0,0,0,3.563-3.52,2.556,2.556,0,0,1,.1-2.489,2.033,2.033,0,0,1,2.513-.418,2.879,2.879,0,0,1,1.143,1.179,7.523,7.523,0,0,0,3.408-2.26,3.373,3.373,0,0,0,.356-.12,2.966,2.966,0,0,0,.028-.369,4.548,4.548,0,0,0-1.147-3.048A5.7,5.7,0,0,0,152.525,113.555Zm2-6.371a4.287,4.287,0,0,0-3.776,2.092,3.957,3.957,0,0,0-.362,2.924,6.461,6.461,0,0,1,6.383,3,3.6,3.6,0,0,0,1.874-1.749,4.315,4.315,0,0,0-.349-4.089A4.706,4.706,0,0,0,154.52,107.185Zm40.231-4.7c-3.811.229-7.824,1.913-9.662,5.437-.086.166.207.224.284.088,1.948-3.487,5.735-4.619,9.411-5.279C194.98,102.7,194.944,102.477,194.752,102.488Zm-45.63,22.854c-1.363-.043-2.833,1.55-2.238,2.913.028.065.166.065.177-.015a2.858,2.858,0,0,1,2.092-2.677A.113.113,0,0,0,149.122,125.342Zm.968.69c-.116.869-.464,2.573-1.749,2.04-.14-.058-.338.147-.17.242a1.412,1.412,0,0,0,1.615-.211,2.131,2.131,0,0,0,.576-2.075C150.339,125.9,150.108,125.9,150.09,126.032Zm3.966,1.471a3.911,3.911,0,0,1-1.2,3.608c-.129.11.095.231.2.16a3.117,3.117,0,0,0,1.238-3.822C154.244,127.353,154.046,127.379,154.057,127.5Zm19.67,28.633a4.923,4.923,0,0,1,2.723-.614c.136.01.259-.194.084-.233a3.349,3.349,0,0,0-2.965.716C173.461,156.1,173.641,156.179,173.727,156.135Zm3.7,3.716c-1.063.06-3.246-.02-3.942.925-.08.106-.343.063-.255-.082.755-1.208,2.957-1.139,4.2-1.1a.127.127,0,1,1-.007.255" transform="translate(-140.183 -102.218)" fill="#3d182d"/>
      </g>
      <path id="path890" d="M195.152,98.354s6.815-5.769,13.015-7.018c0,0-.809,6.515,1.579,11.818l-4.736,6.985s-8.773-11.9-9.858-11.786Z" transform="translate(-164.703 -90.256)" fill="#f9e785"/>
    </g>
  </g>
</svg>
