<svg xmlns="http://www.w3.org/2000/svg" xmlns:xlink="http://www.w3.org/1999/xlink" width="559" zoomAndPan="magnify" viewBox="0 0 419.25 297.75" height="397" preserveAspectRatio="xMidYMid meet" version="1.0"><defs><clipPath id="id1"><path d="M 126.027344 97.515625 L 293.425781 97.515625 L 293.425781 200.15625 L 126.027344 200.15625 Z M 126.027344 97.515625 " clip-rule="nonzero"/></clipPath><clipPath id="id2"><path d="M 126.027344 99 L 293.425781 99 L 293.425781 200.15625 L 126.027344 200.15625 Z M 126.027344 99 " clip-rule="nonzero"/></clipPath><clipPath id="id3"><path d="M 128 97.484375 L 276 97.484375 L 276 190 L 128 190 Z M 128 97.484375 " clip-rule="nonzero"/></clipPath></defs><g clip-path="url(#id1)"><path fill="rgb(97.648621%, 71.369934%, 58.039856%)" d="M 290.621094 194.664062 C 288.734375 193.570312 286.488281 193.105469 284.78125 191.746094 C 282.507812 189.9375 279.429688 185.511719 276.730469 184.445312 C 276.1875 184.226562 275.703125 184.167969 275.265625 184.214844 C 275.152344 183.792969 275.011719 183.378906 274.839844 182.972656 C 274.140625 181.371094 272.78125 179.945312 271.058594 179.648438 C 269.050781 179.304688 267.152344 180.488281 265.230469 181.15625 C 264.628906 181.367188 264.023438 181.527344 263.410156 181.640625 C 263.355469 181.652344 263.304688 181.664062 263.25 181.671875 C 259.519531 182.324219 255.5625 181.359375 251.90625 180.152344 C 247.601562 178.726562 243.28125 176.929688 238.742188 176.996094 C 234.078125 177.058594 229.617188 179.109375 224.953125 179.234375 C 221.753906 179.316406 218.601562 178.492188 215.539062 177.5625 C 207.871094 175.234375 200.410156 172.214844 193.28125 168.554688 C 192.9375 166.894531 192.355469 165.296875 191.523438 163.824219 C 188.996094 159.332031 184.269531 156.136719 179.148438 155.460938 C 177.574219 155.253906 175.960938 155.265625 174.359375 155.242188 C 172.511719 155.210938 170.667969 155.121094 168.910156 154.5625 C 167.488281 154.105469 166.183594 153.332031 165.074219 152.335938 C 165.808594 152.628906 166.585938 152.808594 167.378906 152.867188 C 170.714844 153.113281 174.191406 150.863281 174.953125 147.609375 C 175.226562 146.417969 175.222656 145.03125 176.121094 144.203125 C 176.78125 143.59375 177.730469 143.472656 178.589844 143.230469 C 182.328125 142.179688 184.898438 138.050781 184.191406 134.246094 C 183.578125 130.933594 180.925781 128.332031 180.039062 125.085938 C 179.339844 122.53125 179.796875 119.832031 179.839844 117.183594 C 179.902344 113.535156 179.167969 109.875 177.703125 106.535156 C 176.917969 104.753906 175.894531 103.027344 174.378906 101.800781 C 173.242188 100.878906 171.792969 100.289062 170.351562 100.28125 C 170.285156 100.28125 170.214844 100.28125 170.148438 100.285156 C 166.121094 99.082031 162.449219 98.875 159.003906 99.121094 C 157.777344 98.308594 156.375 97.761719 154.917969 97.5625 C 154.425781 97.496094 153.902344 97.472656 153.460938 97.699219 C 152.914062 97.992188 152.617188 98.621094 152.570312 99.234375 C 152.554688 99.496094 152.570312 99.753906 152.609375 100.007812 C 151.679688 100.1875 150.765625 100.371094 149.863281 100.554688 C 148.460938 100.832031 146.957031 101.375 146.253906 102.609375 C 145.503906 103.910156 145.949219 105.578125 146.667969 106.894531 C 146.839844 107.207031 147.03125 107.515625 147.222656 107.824219 C 145.570312 111.835938 144.632812 116.128906 144.445312 120.464844 C 144.285156 120.53125 144.125 120.601562 143.972656 120.679688 C 142.09375 121.625 140.765625 123.53125 140.449219 125.59375 C 139.652344 126.558594 138.988281 127.640625 138.488281 128.765625 C 137.402344 131.21875 136.941406 133.855469 136.761719 136.53125 C 134.441406 140.492188 130.625 144.023438 130.378906 148.585938 C 130.222656 151.589844 131.6875 154.441406 133.359375 156.941406 C 134.433594 158.554688 135.824219 160.210938 137.5625 160.855469 C 138.132812 169.085938 138.953125 177.285156 140.023438 185.464844 C 136.285156 185.097656 132.476562 185.480469 128.90625 186.621094 C 128.695312 187.199219 129.269531 187.753906 129.808594 188.042969 C 133.027344 189.800781 136.996094 189.105469 140.605469 189.757812 C 140.75 190.785156 140.902344 191.8125 141.054688 192.839844 C 139.492188 194.554688 136.914062 195.226562 134.542969 195.539062 C 131.773438 195.898438 128.792969 196.054688 126.578125 197.75 C 126.324219 197.941406 126.074219 198.183594 126.035156 198.496094 C 125.949219 199.15625 126.773438 199.507812 127.425781 199.621094 C 131.640625 200.347656 135.980469 200.335938 140.191406 199.582031 C 141.886719 199.289062 143.589844 198.855469 145.058594 197.953125 C 145.152344 197.898438 145.238281 197.839844 145.328125 197.78125 L 145.332031 197.773438 C 146.542969 195.164062 146.804688 192.203125 146.78125 189.246094 C 147.675781 188.644531 148.246094 187.542969 148.421875 186.453125 C 148.640625 185.035156 148.335938 183.59375 148.109375 182.179688 C 147.582031 178.839844 147.488281 175.457031 147.515625 172.070312 C 149.007812 174.3125 150.921875 176.324219 152.988281 178.039062 C 154.382812 179.191406 155.855469 180.242188 157.363281 181.25 C 160.660156 183.433594 164.132812 185.382812 167.402344 187.625 C 171.738281 190.605469 176.589844 193.269531 181.542969 195.386719 C 183.164062 196.078125 184.800781 196.710938 186.429688 197.28125 C 193.796875 199.847656 201.800781 198.609375 209.398438 198.234375 C 229.902344 197.21875 250.429688 197.863281 270.957031 198.472656 C 277.523438 198.671875 284.09375 198.859375 290.65625 199 C 291.507812 199.015625 292.417969 199.015625 293.117188 198.535156 C 293.230469 198.453125 293.339844 198.347656 293.425781 198.238281 C 293.160156 196.804688 291.957031 195.433594 290.621094 194.664062 " fill-opacity="1" fill-rule="nonzero"/></g><path fill="rgb(5.879211%, 5.488586%, 4.708862%)" d="M 170.148438 100.285156 C 170.214844 100.28125 170.285156 100.28125 170.351562 100.28125 C 170.34375 100.304688 170.339844 100.324219 170.324219 100.339844 C 170.269531 100.324219 170.210938 100.304688 170.148438 100.285156 " fill-opacity="1" fill-rule="nonzero"/><g clip-path="url(#id2)"><path fill="rgb(97.648621%, 71.369934%, 58.039856%)" d="M 170.148438 100.285156 C 166.121094 99.082031 162.449219 98.875 159.003906 99.121094 C 156.785156 99.277344 154.664062 99.625 152.609375 100.007812 C 151.679688 100.1875 150.765625 100.371094 149.863281 100.554688 C 148.460938 100.832031 146.957031 101.375 146.253906 102.609375 C 145.503906 103.910156 145.949219 105.578125 146.667969 106.894531 C 146.839844 107.207031 147.03125 107.515625 147.222656 107.824219 C 145.570312 111.835938 144.632812 116.128906 144.445312 120.464844 C 145.320312 120.089844 146.25 119.816406 146.988281 119.226562 C 148.640625 117.925781 148.984375 115.382812 150.761719 114.261719 C 153.058594 112.820312 156.371094 114.578125 158.703125 113.183594 C 160 112.40625 160.613281 110.84375 160.871094 109.355469 C 161.070312 108.199219 161.148438 106.945312 161.890625 106.035156 C 162.890625 104.800781 164.683594 104.671875 166.179688 104.128906 C 167.988281 103.476562 169.507812 102.074219 170.324219 100.339844 C 170.269531 100.324219 170.210938 100.304688 170.148438 100.285156 Z M 149.371094 121.359375 C 145.929688 121.023438 142.679688 122.878906 140.449219 125.59375 C 139.652344 126.558594 138.988281 127.640625 138.488281 128.769531 C 137.402344 131.222656 136.941406 133.855469 136.761719 136.53125 C 136.625 138.546875 136.652344 140.585938 136.703125 142.597656 C 136.847656 148.6875 137.136719 154.777344 137.5625 160.855469 C 138.132812 169.085938 138.953125 177.285156 140.023438 185.464844 C 140.207031 186.894531 140.402344 188.324219 140.605469 189.757812 C 140.75 190.785156 140.902344 191.8125 141.054688 192.839844 C 139.492188 194.554688 136.914062 195.230469 134.542969 195.539062 C 131.773438 195.898438 128.792969 196.054688 126.578125 197.75 C 126.324219 197.941406 126.074219 198.183594 126.035156 198.496094 C 125.949219 199.15625 126.773438 199.507812 127.425781 199.621094 C 131.640625 200.347656 135.980469 200.335938 140.191406 199.582031 C 141.886719 199.289062 143.589844 198.855469 145.058594 197.953125 C 145.152344 197.898438 145.238281 197.839844 145.328125 197.78125 L 145.332031 197.773438 C 146.542969 195.164062 146.804688 192.203125 146.78125 189.246094 C 146.773438 188.128906 146.730469 187.007812 146.671875 185.898438 C 146.472656 181.75 146.273438 177.589844 146.074219 173.441406 C 146.011719 172.207031 146.058594 170.992188 146.1875 169.792969 C 147.082031 161.34375 151.972656 153.574219 152.664062 144.953125 C 152.742188 143.992188 152.8125 143.011719 152.945312 142.042969 C 154.746094 142.511719 156.691406 142.457031 158.503906 141.972656 C 160.046875 141.570312 161.5 140.875 162.847656 140.003906 C 162.195312 136.738281 161.148438 133.546875 159.71875 130.535156 C 157.648438 126.183594 154.183594 121.820312 149.371094 121.359375 Z M 293.425781 198.238281 C 293.339844 198.347656 293.230469 198.453125 293.117188 198.53125 C 292.417969 199.015625 291.503906 199.015625 290.65625 198.996094 C 284.089844 198.859375 277.523438 198.671875 270.957031 198.472656 C 250.429688 197.863281 229.898438 197.21875 209.394531 198.234375 C 201.800781 198.609375 193.792969 199.847656 186.425781 197.28125 C 184.796875 196.710938 183.164062 196.078125 181.539062 195.386719 C 187.945312 189.375 192.296875 181.191406 193.625 172.507812 C 193.625 172.503906 193.625 172.496094 193.625 172.488281 L 193.625 172.507812 C 202.726562 175.460938 210.714844 182.21875 220.285156 183.015625 C 226.289062 183.515625 232.273438 181.574219 238.28125 181.953125 C 243.675781 182.296875 248.75 184.476562 253.886719 186.148438 C 256.855469 187.121094 259.984375 187.921875 263.085938 188.109375 C 263.132812 188.109375 263.179688 188.113281 263.226562 188.117188 C 265.441406 188.234375 267.636719 188.035156 269.75 187.355469 C 269.757812 187.355469 269.765625 187.351562 269.777344 187.34375 C 272.167969 186.566406 273.355469 184.394531 275.261719 184.210938 C 275.703125 184.167969 276.183594 184.226562 276.726562 184.445312 C 279.429688 185.511719 282.507812 189.9375 284.78125 191.746094 C 286.488281 193.105469 288.734375 193.570312 290.621094 194.664062 C 291.957031 195.429688 293.15625 196.804688 293.425781 198.238281 " fill-opacity="1" fill-rule="nonzero"/></g><path fill="rgb(93.328857%, 18.429565%, 29.40979%)" d="M 136.761719 136.53125 C 134.441406 140.492188 130.625 144.023438 130.378906 148.585938 C 130.222656 151.589844 131.6875 154.441406 133.359375 156.941406 C 134.433594 158.554688 135.824219 160.210938 137.5625 160.855469 C 137.136719 154.773438 136.847656 148.6875 136.703125 142.597656 C 136.652344 140.585938 136.625 138.546875 136.761719 136.53125 Z M 174.359375 155.242188 C 172.417969 156.484375 170.71875 158.210938 169.402344 160.097656 C 166.691406 163.984375 165.195312 168.566406 163.179688 172.855469 C 161.726562 175.941406 159.875 179.003906 157.363281 181.25 C 155.855469 180.242188 154.382812 179.191406 152.988281 178.039062 C 150.921875 176.324219 149.007812 174.3125 147.511719 172.070312 C 147.023438 171.335938 146.578125 170.574219 146.183594 169.792969 C 147.078125 161.34375 151.972656 153.574219 152.664062 144.953125 C 152.742188 143.992188 152.8125 143.011719 152.945312 142.042969 C 154.746094 142.507812 156.691406 142.457031 158.503906 141.972656 C 160.046875 141.570312 161.5 140.875 162.847656 140.003906 C 163.539062 143.496094 163.777344 147.074219 163.535156 150.628906 C 163.984375 151.242188 164.503906 151.820312 165.070312 152.332031 L 165.070312 152.335938 C 166.179688 153.332031 167.488281 154.105469 168.910156 154.5625 C 170.664062 155.121094 172.507812 155.210938 174.359375 155.242188 " fill-opacity="1" fill-rule="nonzero"/><g clip-path="url(#id3)"><path fill="rgb(95.289612%, 38.42926%, 23.529053%)" d="M 150.226562 129.28125 C 151.230469 131.398438 152.066406 133.570312 152.496094 135.882812 C 152.894531 138.03125 152.792969 140.15625 152.964844 142.316406 C 152.988281 142.648438 153.546875 142.566406 153.613281 142.300781 C 154.710938 137.972656 153 132.707031 150.539062 129.148438 C 150.453125 129.023438 150.148438 129.113281 150.226562 129.28125 Z M 128.90625 186.621094 C 128.695312 187.199219 129.269531 187.75 129.808594 188.042969 C 133.027344 189.796875 136.996094 189.105469 140.605469 189.753906 C 140.402344 188.324219 140.207031 186.894531 140.023438 185.464844 C 136.285156 185.097656 132.476562 185.480469 128.90625 186.621094 Z M 147.515625 172.070312 C 147.023438 171.335938 146.578125 170.574219 146.1875 169.792969 C 146.058594 170.992188 146.011719 172.203125 146.074219 173.4375 C 146.273438 177.589844 146.472656 181.746094 146.671875 185.898438 C 146.730469 187.003906 146.773438 188.125 146.78125 189.242188 C 147.675781 188.644531 148.246094 187.539062 148.421875 186.449219 C 148.640625 185.03125 148.335938 183.59375 148.109375 182.179688 C 147.582031 178.835938 147.492188 175.457031 147.515625 172.070312 Z M 153.460938 97.699219 C 152.914062 97.992188 152.617188 98.621094 152.570312 99.234375 C 152.554688 99.496094 152.570312 99.753906 152.609375 100.007812 C 154.664062 99.625 156.785156 99.277344 159.003906 99.121094 C 157.777344 98.308594 156.375 97.761719 154.917969 97.5625 C 154.425781 97.496094 153.902344 97.472656 153.460938 97.699219 Z M 275.265625 184.210938 C 273.355469 184.394531 272.171875 186.566406 269.777344 187.34375 C 269.765625 187.351562 269.757812 187.355469 269.75 187.355469 C 267.636719 188.035156 265.441406 188.234375 263.230469 188.117188 C 263.179688 188.113281 263.132812 188.109375 263.085938 188.109375 C 259.984375 187.921875 256.855469 187.121094 253.886719 186.148438 C 248.75 184.476562 243.675781 182.296875 238.28125 181.953125 C 232.273438 181.574219 226.289062 183.515625 220.285156 183.015625 C 210.714844 182.21875 202.726562 175.460938 193.628906 172.507812 L 193.628906 172.488281 C 193.667969 171.175781 193.550781 169.84375 193.277344 168.550781 C 200.410156 172.214844 207.871094 175.230469 215.539062 177.558594 C 218.601562 178.488281 221.753906 179.316406 224.949219 179.230469 C 229.617188 179.109375 234.078125 177.058594 238.742188 176.996094 C 243.28125 176.925781 247.601562 178.726562 251.90625 180.152344 C 255.558594 181.359375 259.519531 182.324219 263.25 181.671875 C 263.300781 181.664062 263.355469 181.652344 263.410156 181.640625 C 264.023438 181.527344 264.628906 181.367188 265.230469 181.15625 C 267.148438 180.488281 269.050781 179.300781 271.058594 179.648438 C 272.78125 179.945312 274.140625 181.371094 274.839844 182.972656 C 275.011719 183.375 275.148438 183.792969 275.265625 184.210938 " fill-opacity="1" fill-rule="nonzero"/></g><path fill="rgb(45.098877%, 7.839966%, 19.999695%)" d="M 154.207031 106.640625 C 154.601562 106.65625 154.90625 106.109375 154.417969 105.980469 C 152.859375 105.5625 151.71875 104.390625 151.574219 102.746094 C 151.546875 102.421875 150.917969 102.464844 150.894531 102.773438 C 150.734375 104.6875 152.242188 106.554688 154.207031 106.640625 Z M 163.855469 104.265625 C 164.804688 103.144531 164.769531 101.617188 163.894531 100.464844 C 163.738281 100.257812 163.261719 100.4375 163.382812 100.710938 C 163.871094 101.792969 163.8125 102.957031 163.359375 104.039062 C 163.238281 104.328125 163.683594 104.46875 163.855469 104.265625 Z M 159.992188 105.003906 C 160.164062 104.292969 160.121094 103.546875 160.285156 102.832031 C 160.453125 102.085938 160.753906 101.382812 161.152344 100.730469 C 161.371094 100.375 160.71875 100.234375 160.515625 100.464844 C 159.53125 101.585938 158.617188 103.636719 159.53125 105.050781 C 159.632812 105.207031 159.941406 105.21875 159.992188 105.007812 Z M 162.847656 140.003906 C 163.542969 143.496094 163.777344 147.074219 163.539062 150.625 C 163.988281 151.242188 164.503906 151.820312 165.070312 152.332031 L 165.074219 152.335938 C 165.808594 152.625 166.585938 152.808594 167.378906 152.867188 C 170.714844 153.113281 174.191406 150.859375 174.953125 147.609375 C 175.226562 146.417969 175.222656 145.03125 176.121094 144.199219 C 176.78125 143.59375 177.730469 143.472656 178.589844 143.226562 C 182.328125 142.175781 184.898438 138.050781 184.191406 134.242188 C 183.578125 130.933594 180.925781 128.332031 180.039062 125.082031 C 179.339844 122.53125 179.796875 119.828125 179.839844 117.183594 C 179.902344 113.535156 179.167969 109.875 177.703125 106.535156 C 176.917969 104.753906 175.894531 103.027344 174.378906 101.800781 C 173.242188 100.878906 171.792969 100.289062 170.351562 100.28125 C 170.34375 100.304688 170.339844 100.320312 170.324219 100.339844 C 169.507812 102.074219 167.988281 103.476562 166.179688 104.128906 C 164.683594 104.671875 162.890625 104.800781 161.890625 106.035156 C 161.148438 106.945312 161.070312 108.199219 160.871094 109.351562 C 160.613281 110.839844 160 112.402344 158.703125 113.183594 C 156.371094 114.578125 153.058594 112.816406 150.761719 114.257812 C 148.984375 115.378906 148.640625 117.925781 146.988281 119.226562 C 146.25 119.816406 145.320312 120.089844 144.445312 120.464844 C 144.285156 120.53125 144.125 120.601562 143.972656 120.679688 C 142.09375 121.625 140.765625 123.53125 140.449219 125.59375 C 142.679688 122.878906 145.929688 121.023438 149.371094 121.359375 C 154.183594 121.820312 157.648438 126.179688 159.71875 130.535156 C 161.148438 133.542969 162.195312 136.734375 162.847656 140.003906 Z M 193.628906 172.488281 C 193.628906 172.496094 193.628906 172.503906 193.625 172.507812 C 192.296875 181.191406 187.945312 189.375 181.542969 195.382812 C 176.589844 193.265625 171.738281 190.605469 167.402344 187.625 C 164.132812 185.378906 160.660156 183.433594 157.363281 181.25 C 159.878906 179 161.726562 175.941406 163.179688 172.851562 C 165.195312 168.566406 166.691406 163.984375 169.402344 160.097656 C 170.71875 158.210938 172.417969 156.484375 174.359375 155.238281 C 175.960938 155.261719 177.574219 155.253906 179.148438 155.460938 C 184.269531 156.136719 188.996094 159.332031 191.523438 163.824219 C 192.355469 165.296875 192.9375 166.894531 193.277344 168.550781 C 193.550781 169.84375 193.667969 171.175781 193.628906 172.488281 " fill-opacity="1" fill-rule="nonzero"/></svg>