<svg xmlns="http://www.w3.org/2000/svg" xmlns:xlink="http://www.w3.org/1999/xlink" width="330.416" height="210.986" viewBox="0 0 330.416 210.986">
  <defs>
    <clipPath id="clip-path">
      <path id="Path_1078" data-name="Path 1078" d="M52.258,91.8H67.793v12.043H52.258Zm0,0" fill="#cadef9"/>
    </clipPath>
    <clipPath id="clip-path-2">
      <path id="Path_1086" data-name="Path 1086" d="M54.215,67.965H67.793v24.82H54.215Zm0,0" fill="#cadef9"/>
    </clipPath>
    <clipPath id="clip-path-3">
      <path id="Path_1088" data-name="Path 1088" d="M56,67.965H67.793v24.82H56Zm0,0" fill="#cadef9"/>
    </clipPath>
    <clipPath id="clip-path-4">
      <path id="Path_1090" data-name="Path 1090" d="M52,92H67.828v12H52Zm0,0" fill="#cadef9"/>
    </clipPath>
    <clipPath id="clip-path-5">
      <path id="Path_1108" data-name="Path 1108" d="M41.258,81.48H61.547V187.133H41.258Zm0,0" fill="#cadef9"/>
    </clipPath>
    <clipPath id="clip-path-6">
      <path id="Path_1078-2" data-name="Path 1078" d="M0,12.043H15.535V0H0Zm0,0" fill="#cadef9"/>
    </clipPath>
    <clipPath id="clip-path-7">
      <path id="Path_1086-2" data-name="Path 1086" d="M0,24.82H13.578V0H0Zm0,0" transform="translate(0 0)" fill="#cadef9"/>
    </clipPath>
    <clipPath id="clip-path-8">
      <path id="Path_1088-2" data-name="Path 1088" d="M0,24.82H11.793V0H0Zm0,0" fill="#cadef9"/>
    </clipPath>
    <clipPath id="clip-path-9">
      <path id="Path_1090-2" data-name="Path 1090" d="M0,12H15.828V0H0Zm0,0" transform="translate(0 0)" fill="#cadef9"/>
    </clipPath>
    <clipPath id="clip-path-10">
      <path id="Path_1108-2" data-name="Path 1108" d="M0,105.652H20.289V0H0Zm0,0" fill="#cadef9"/>
    </clipPath>
    <clipPath id="clip-path-11">
      <path id="path2" d="M138.063,82h176.36V243.4H138.063Zm0,0" transform="translate(-138.063 -82)"/>
    </clipPath>
    <clipPath id="clip-path-12">
      <path id="path5" d="M138.086,90.348H295V240.283H138.086Zm0,0" transform="translate(-138.086 -90.348)"/>
    </clipPath>
    <clipPath id="clip-path-13">
      <path id="path8" d="M238,82h40.441v61.2H238Zm0,0" transform="translate(-238 -82)"/>
    </clipPath>
    <clipPath id="clip-path-14">
      <path id="Path_2511" data-name="Path 2511" d="M269.129,92.758h45.619V142.8H269.129Zm0,0" transform="translate(-269.129 -92.758)"/>
    </clipPath>
    <clipPath id="clip-path-15">
      <path id="Path_2513" data-name="Path 2513" d="M276,160h36.665v38.086H276Zm0,0" transform="translate(-276 -160)"/>
    </clipPath>
  </defs>
  <g id="Group_200" data-name="Group 200" transform="translate(-36.584 -158.719)">
    <g id="_8" data-name="8" transform="matrix(-0.616, 0.788, -0.788, -0.616, 240.296, 250.169)">
      <path id="Path_1072" data-name="Path 1072" d="M62.543,160.512a34.387,34.387,0,0,1-3.3,8.492,11.494,11.494,0,0,1-6.977,5.48,20.989,20.989,0,0,1-5.02.3,20.875,20.875,0,0,0-4.957.282c-.23.05-.465.1-.7.171.043-2.23,2.387-5.269,3.945-6.793,4.508-4.4,11.84-4.265,16.973-7.91l.027-.019" fill="#cadef9"/>
      <path id="Path_1073" data-name="Path 1073" d="M62.6,149.441a21.431,21.431,0,0,0-5.133,5.028,24.53,24.53,0,0,1-2.828,3.7,15.711,15.711,0,0,1-4.539,2.664c-2.437,1.082-5.219,2.844-7.809,3.328a3.664,3.664,0,0,1,.184-2.2,25.059,25.059,0,0,1,3.563-6.1,15.432,15.432,0,0,1,11.2-6.161c1.492-.1,3,.02,4.488-.128.293-.032.582-.071.871-.122" fill="#cadef9"/>
      <path id="Path_1074" data-name="Path 1074" d="M59.586,133.207a15.88,15.88,0,0,0-2,4.746c-1.105,3.5-2.742,7.172-5.957,8.922a27.237,27.237,0,0,1-5.3,1.7c-1.3.395-2.465,1.328-3.008.45a2.13,2.13,0,0,1-.25-.786c-.434-2.73,3.672-6.984,5.457-8.586a38.028,38.028,0,0,1,10.57-6.234c.164-.07.328-.137.488-.207" fill="#cadef9"/>
      <path id="Path_1075" data-name="Path 1075" d="M62.6,117.363q-1.764,4.343-3.527,8.68a6.357,6.357,0,0,1-1.129,2.027,6.365,6.365,0,0,1-2.316,1.368c-3.625,1.488-7.547,3.726-11.348,4.539a5.365,5.365,0,0,1,.125-1.071c.66-3.136,3.848-6.578,5.8-8.707a16.994,16.994,0,0,1,3.707-3.277c2.258-1.348,4.973-1.738,7.348-2.828a10.535,10.535,0,0,0,1.34-.731" fill="#cadef9"/>
      <path id="Path_1076" data-name="Path 1076" d="M62.648,104.707c-1.9,1.762-2.324,4.617-3.82,6.734-1.344,1.907-3.449,3.086-5.484,4.211a39.9,39.9,0,0,1-5.914,3.133l-.008-.031c-.516-2.621,3.465-6.863,5.133-8.649a16.268,16.268,0,0,1,9.73-5.359c.121-.016.242-.027.363-.039" fill="#cadef9"/>
      <g id="Group_32" data-name="Group 32" clip-path="url(#clip-path)">
        <path id="Path_1077" data-name="Path 1077" d="M67.793,91.977c-.094.246-.187.488-.281.73a28.735,28.735,0,0,1-2.652,5.508,10.658,10.658,0,0,1-5.191,4.351c-2.246.778-4.891.883-7.215,1.278a2.273,2.273,0,0,1-.039-.434c.027-2.258,3.215-5.187,4.75-6.41.535-.422,1.1-.812,1.668-1.184a28.8,28.8,0,0,1,8.961-3.84" fill="#cadef9"/>
      </g>
      <path id="Path_1079" data-name="Path 1079" d="M41.8,175.234a18.793,18.793,0,0,0-5.652-.457,20.75,20.75,0,0,1-5.016-.293A11.473,11.473,0,0,1,24.152,169a29.356,29.356,0,0,1-2.859-6.984c-.148-.5-.293-1-.437-1.508,5.133,3.664,12.48,3.523,17,7.929a17.26,17.26,0,0,1,3.352,4.6,5.655,5.655,0,0,1,.59,2.191" fill="#cadef9"/>
      <path id="Path_1080" data-name="Path 1080" d="M41.223,164.16c-.242-.043-.488-.1-.734-.168-2.375-.644-4.867-2.179-7.074-3.16a15.68,15.68,0,0,1-4.543-2.664,24.758,24.758,0,0,1-2.824-3.7,21.376,21.376,0,0,0-5.027-4.953l-.105-.075a46.825,46.825,0,0,0,5.359.25,15.447,15.447,0,0,1,11.2,6.161c1.27,1.7,4.449,6.14,3.746,8.308" fill="#cadef9"/>
      <path id="Path_1081" data-name="Path 1081" d="M43.4,147.523c-.1.637-.3.961-.574,1.086a.593.593,0,0,1-.191.055c-.613.094-1.512-.508-2.492-.805a27.445,27.445,0,0,1-5.3-1.695c-3.215-1.75-4.852-5.422-5.957-8.926a15.9,15.9,0,0,0-2-4.742c.1.043.2.082.3.129a38.37,38.37,0,0,1,10.758,6.313,23.3,23.3,0,0,1,4.871,5.953,4.573,4.573,0,0,1,.586,2.632" fill="#cadef9"/>
      <path id="Path_1082" data-name="Path 1082" d="M44.109,133.18c-3.152-2.282-5.848-5.918-8.57-8.75a4.82,4.82,0,0,1-1.793-4.5q.123-4.687.25-9.375a1.571,1.571,0,0,0,.09.133c1.742,2.55,4.649,4.121,6.434,6.644a16.864,16.864,0,0,1,2.082,4.5c1.043,3.059,2.836,8.227,1.508,11.348" fill="#cadef9"/>
      <path id="Path_1083" data-name="Path 1083" d="M47.816,117.316c-.23-.179-.457-.371-.676-.57-1.406-1.269-2.652-2.941-3.906-4.324-1.562-1.727-3.172-3.531-3.828-5.77-.7-2.386-.254-5.086-1.293-7.32-.047-.1-.094-.2-.148-.3a16.171,16.171,0,0,1,7.809,8.4c1,2.242,3.414,7.586,2.043,9.882" fill="#cadef9"/>
      <path id="Path_1084" data-name="Path 1084" d="M51.477,101.6a2.1,2.1,0,0,1-.309.375c-1.672-1.676-3.766-3.3-5.152-5.243a10.748,10.748,0,0,1-1.726-6.562,31.141,31.141,0,0,1,1.152-6.625c.016-.059.031-.113.043-.172a29.054,29.054,0,0,1,5.1,8.344c.254.637.488,1.281.68,1.938.543,1.871,1.445,6.063.215,7.946" fill="#cadef9"/>
      <g id="Group_33" data-name="Group 33" clip-path="url(#clip-path-2)">
        <path id="Path_1085" data-name="Path 1085" d="M67.664,67.965Q66.5,74.2,65.348,80.434a26.424,26.424,0,0,1-1.477,5.6c-.828,1.926-5.148,7.855-7.8,6.5a2.39,2.39,0,0,1-.9-.859c-2.152-3.316.965-11.145,2.863-13.988,2.375-3.562,6.051-6,9.027-9.078.2-.211.4-.422.6-.641" fill="#cadef9"/>
      </g>
      <g id="Group_34" data-name="Group 34" clip-path="url(#clip-path-3)">
        <path id="Path_1087" data-name="Path 1087" d="M56.918,92.73a1.829,1.829,0,0,1-.848-.2c2.863-3.945,8.918-18.406,10.992-23.926.2-.211.4-.422.6-.641Q66.5,74.2,65.348,80.434a26.424,26.424,0,0,1-1.477,5.6c-.746,1.73-4.312,6.7-6.953,6.7" fill="#cadef9"/>
      </g>
      <g id="Group_35" data-name="Group 35" clip-path="url(#clip-path-4)">
        <path id="Path_1089" data-name="Path 1089" d="M52.453,103.844a1.949,1.949,0,0,1-.039-.4v-.035c4.688-1.82,11.934-7.984,15.1-10.7a28.735,28.735,0,0,1-2.652,5.508,10.658,10.658,0,0,1-5.191,4.351c-2.246.778-4.891.883-7.215,1.278" fill="#cadef9"/>
      </g>
      <path id="Path_1091" data-name="Path 1091" d="M47.43,118.785l-.008-.031c1.992-2.332,6.109-7.16,7-8.231s5.519-4.23,7.863-5.777c.121-.016.242-.027.363-.039-1.9,1.762-2.324,4.617-3.82,6.734-1.344,1.907-3.449,3.086-5.484,4.211a39.9,39.9,0,0,1-5.914,3.133" fill="#cadef9"/>
      <path id="Path_1092" data-name="Path 1092" d="M44.281,133.977a5.365,5.365,0,0,1,.125-1.071c5.406-1.84,13.492-10.855,16.855-14.812a10.535,10.535,0,0,0,1.34-.731q-1.764,4.343-3.527,8.68a6.357,6.357,0,0,1-1.129,2.027,6.365,6.365,0,0,1-2.316,1.368c-3.625,1.488-7.547,3.726-11.348,4.539" fill="#cadef9"/>
      <path id="Path_1093" data-name="Path 1093" d="M43.969,149.387a.711.711,0,0,1-.648-.367c2.961-1.883,6.34-5.629,8.027-7.731a98.988,98.988,0,0,1,7.75-7.875c.164-.07.328-.137.488-.207a15.88,15.88,0,0,0-2,4.746c-1.105,3.5-2.742,7.172-5.957,8.922a27.237,27.237,0,0,1-5.3,1.7,12.52,12.52,0,0,1-2.359.817" fill="#cadef9"/>
      <path id="Path_1094" data-name="Path 1094" d="M42.293,164.16a2.207,2.207,0,0,1-.1-.7,4.88,4.88,0,0,1,.285-1.5c4.051-5.336,14.851-10.387,19.254-12.394.293-.032.582-.071.871-.122a21.431,21.431,0,0,0-5.133,5.028,24.53,24.53,0,0,1-2.828,3.7,15.711,15.711,0,0,1-4.539,2.664c-2.437,1.082-5.219,2.844-7.809,3.328" fill="#cadef9"/>
      <path id="Path_1095" data-name="Path 1095" d="M42.293,175.063c.988-2.032,3.055-4.094,7.281-5.028a20.577,20.577,0,0,0,12.941-9.5l.027-.019a34.387,34.387,0,0,1-3.3,8.492,11.494,11.494,0,0,1-6.977,5.48,16.2,16.2,0,0,1-3.52.317c-.5,0-1-.012-1.5-.02s-1-.023-1.5-.023a16.317,16.317,0,0,0-3.457.305" fill="#cadef9"/>
      <path id="Path_1096" data-name="Path 1096" d="M51.477,101.6C50.285,96.9,47,87.766,45.441,83.543c.016-.059.031-.113.043-.172a29.054,29.054,0,0,1,5.1,8.344c.254.637.488,1.281.68,1.938a20.274,20.274,0,0,1,.832,5.164,5.2,5.2,0,0,1-.617,2.782" fill="#cadef9"/>
      <path id="Path_1097" data-name="Path 1097" d="M36.59,97.871l-.6-.059h.477a.292.292,0,0,1,.125.059" fill="#cadef9"/>
      <path id="Path_1098" data-name="Path 1098" d="M47.816,117.316c-.23-.179-.457-.371-.676-.57-1.461-7.992-6.406-14.566-9.027-17.414-.047-.1-.094-.2-.148-.3a16.171,16.171,0,0,1,7.809,8.4c.793,1.765,2.457,5.461,2.457,8.07a3.553,3.553,0,0,1-.414,1.812" fill="#cadef9"/>
      <path id="Path_1099" data-name="Path 1099" d="M44.109,133.18c-4.469-6.875-8.793-18.668-10.024-22.492,1.742,2.55,4.649,4.121,6.434,6.644a16.864,16.864,0,0,1,2.082,4.5c.781,2.289,1.98,5.758,1.98,8.664a6.846,6.846,0,0,1-.473,2.684" fill="#cadef9"/>
      <path id="Path_1100" data-name="Path 1100" d="M42.578,154.867c-.047,0,.094-.742.184-1.894a9.7,9.7,0,0,1-.156,1.859c-.016.023-.023.035-.027.035" fill="#cadef9"/>
      <path id="Path_1101" data-name="Path 1101" d="M42.813,150.563a16.5,16.5,0,0,0-.18-1.9.593.593,0,0,0,.191-.055c0,.676,0,1.332-.012,1.954" fill="#cadef9"/>
      <path id="Path_1102" data-name="Path 1102" d="M42.633,148.664a9.474,9.474,0,0,0-4.281-7.019,67.619,67.619,0,0,1-11.168-9.02,38.37,38.37,0,0,1,10.758,6.313,23.3,23.3,0,0,1,4.871,5.953c.012,1.211.016,2.492.012,3.718a.593.593,0,0,1-.191.055" fill="#cadef9"/>
      <path id="Path_1103" data-name="Path 1103" d="M42.762,152.973c.023-.68.039-1.5.051-2.407a21.268,21.268,0,0,1-.051,2.407" fill="#cadef9"/>
      <path id="Path_1104" data-name="Path 1104" d="M41.223,164.16c-.242-.043-.488-.1-.734-.168a32.409,32.409,0,0,0-5.8-7.14c-5.895-5.743-11.215-7.079-13.668-7.336l-.105-.075a46.825,46.825,0,0,0,5.359.25,15.447,15.447,0,0,1,11.2,6.161c1.148,1.535,3.844,5.3,3.844,7.613a2.318,2.318,0,0,1-.1.7" fill="#cadef9"/>
      <path id="Path_1105" data-name="Path 1105" d="M41.777,167.9l-.043-.687a2.848,2.848,0,0,1,.043.687" fill="#cadef9"/>
      <path id="Path_1106" data-name="Path 1106" d="M41.207,173.043c-2.961-1.648-8.168-3.266-13.375-5.617a14,14,0,0,1-6.539-5.406c-.148-.5-.293-1-.437-1.508,5.133,3.664,12.48,3.523,17,7.929a17.26,17.26,0,0,1,3.352,4.6" fill="#cadef9"/>
      <g id="Group_36" data-name="Group 36" clip-path="url(#clip-path-5)">
        <path id="Path_1107" data-name="Path 1107" d="M41.5,187.133c-.2-9.047-.258-18.11.063-27.164a242.762,242.762,0,0,1,2.356-27.078,163.951,163.951,0,0,1,6.1-26.461A122.589,122.589,0,0,1,61.066,81.684l.273.16a122.172,122.172,0,0,0-10.641,24.8,162.54,162.54,0,0,0-5.68,26.406,241.071,241.071,0,0,0-1.953,26.961c-.187,9.015,0,18.043.332,27.066l-1.895.055" fill="#cadef9"/>
      </g>
    </g>
    <g id="_8-2" data-name="8" transform="translate(45.005 160.244) rotate(13)">
      <path id="Path_1072-2" data-name="Path 1072" d="M20.945,14.722a34.387,34.387,0,0,0-3.3-8.492A11.494,11.494,0,0,0,10.672.75a20.989,20.989,0,0,0-5.019-.3A20.875,20.875,0,0,1,.7.171C.465.121.23.066,0,0,.043,2.23,2.387,5.269,3.945,6.793c4.508,4.4,11.84,4.265,16.973,7.91l.027.019" transform="translate(20.742 11.899)" fill="#cadef9"/>
      <path id="Path_1073-2" data-name="Path 1073" d="M20.41,14.719a21.431,21.431,0,0,1-5.133-5.028,24.531,24.531,0,0,0-2.828-3.7A15.711,15.711,0,0,0,7.91,3.328C5.472,2.246,2.691.484.1,0A3.664,3.664,0,0,0,.285,2.2a25.059,25.059,0,0,0,3.562,6.1,15.432,15.432,0,0,0,11.2,6.161c1.492.1,3-.02,4.488.128.293.032.582.071.871.122" transform="translate(21.336 22.973)" fill="#cadef9"/>
      <path id="Path_1074-2" data-name="Path 1074" d="M16.547,16.178a15.88,15.88,0,0,1-2-4.746C13.442,7.928,11.805,4.26,8.59,2.51a27.237,27.237,0,0,0-5.3-1.7C1.985.42.825-.513.282.365a2.13,2.13,0,0,0-.25.786C-.4,3.881,3.7,8.135,5.489,9.737a38.028,38.028,0,0,0,10.57,6.234c.164.07.328.137.488.207" transform="translate(22.183 37.748)" fill="#cadef9"/>
      <path id="Path_1075-2" data-name="Path 1075" d="M18.32,16.614q-1.764-4.343-3.527-8.68a6.357,6.357,0,0,0-1.129-2.027,6.365,6.365,0,0,0-2.316-1.368C7.723,3.051,3.8.813,0,0A5.365,5.365,0,0,0,.125,1.071c.66,3.136,3.848,6.578,5.8,8.707a16.994,16.994,0,0,0,3.707,3.277c2.258,1.348,4.973,1.738,7.348,2.828a10.535,10.535,0,0,1,1.34.731" transform="translate(23.426 53.156)" fill="#cadef9"/>
      <path id="Path_1076-2" data-name="Path 1076" d="M15.272,14.078c-1.9-1.762-2.324-4.617-3.82-6.734C10.108,5.437,8,4.258,5.968,3.133A39.9,39.9,0,0,0,.054,0L.046.031C-.47,2.652,3.511,6.894,5.179,8.68a16.268,16.268,0,0,0,9.73,5.359c.121.016.242.027.363.039" transform="translate(26.521 68.348)" fill="#cadef9"/>
      <g id="Group_32-2" data-name="Group 32" transform="translate(31.402 83.289)" clip-path="url(#clip-path-6)">
        <path id="Path_1077-2" data-name="Path 1077" d="M15.379,11.867c-.094-.246-.187-.488-.281-.73a28.734,28.734,0,0,0-2.652-5.508A10.658,10.658,0,0,0,7.254,1.278C5.008.5,2.363.4.039,0A2.273,2.273,0,0,0,0,.434c.027,2.258,3.215,5.187,4.75,6.41.535.422,1.1.813,1.668,1.184a28.8,28.8,0,0,0,8.961,3.84" transform="translate(0.156 0)" fill="#cadef9"/>
      </g>
      <path id="Path_1079-2" data-name="Path 1079" d="M20.941,0a18.793,18.793,0,0,1-5.652.457A20.75,20.75,0,0,0,10.273.75,11.473,11.473,0,0,0,3.3,6.23,29.356,29.356,0,0,0,.438,13.214c-.148.5-.293,1-.437,1.508C5.133,11.058,12.48,11.2,17,6.793a17.26,17.26,0,0,0,3.351-4.6A5.655,5.655,0,0,0,20.941,0" transform="translate(0 11.899)" fill="#cadef9"/>
      <path id="Path_1080-2" data-name="Path 1080" d="M20.309,0c-.242.043-.488.1-.734.168C17.2.812,14.707,2.347,12.5,3.328A15.68,15.68,0,0,0,7.957,5.992a24.759,24.759,0,0,0-2.824,3.7A21.376,21.376,0,0,1,.105,14.644L0,14.719a46.825,46.825,0,0,1,5.359-.25,15.447,15.447,0,0,0,11.2-6.161c1.27-1.7,4.449-6.14,3.746-8.308" transform="translate(0.059 22.973)" fill="#cadef9"/>
      <path id="Path_1081-2" data-name="Path 1081" d="M16.516,1.151c-.1-.637-.3-.961-.574-1.086A.593.593,0,0,0,15.75.01c-.613-.094-1.512.508-2.492.805a27.445,27.445,0,0,0-5.3,1.695C4.742,4.26,3.105,7.932,2,11.436a15.9,15.9,0,0,1-2,4.742c.1-.043.2-.082.3-.129A38.37,38.37,0,0,0,11.059,9.736,23.3,23.3,0,0,0,15.93,3.783a4.573,4.573,0,0,0,.586-2.632" transform="translate(6.027 38.459)" fill="#cadef9"/>
      <path id="Path_1082-2" data-name="Path 1082" d="M10.374,0C7.221,2.282,4.526,5.918,1.8,8.75a6.4,6.4,0,0,0-1.57,2.188A6.382,6.382,0,0,0,.01,13.25q.123,4.688.25,9.375a1.571,1.571,0,0,1,.09-.133C2.092,19.942,5,18.371,6.784,15.848a16.864,16.864,0,0,0,2.082-4.5C9.909,8.289,11.7,3.121,10.374,0" transform="translate(12.88 53.953)" fill="#cadef9"/>
      <path id="Path_1083-2" data-name="Path 1083" d="M9.852,0c-.23.179-.457.371-.676.57C7.77,1.839,6.523,3.511,5.27,4.894,3.707,6.621,2.1,8.425,1.441,10.664c-.7,2.386-.254,5.086-1.293,7.32-.047.1-.094.2-.148.3a16.171,16.171,0,0,0,7.809-8.4C8.812,7.64,11.223,2.3,9.852,0" transform="translate(17.109 69.817)" fill="#cadef9"/>
      <path id="Path_1084-2" data-name="Path 1084" d="M7.194.375A2.1,2.1,0,0,0,6.886,0C5.214,1.676,3.12,3.3,1.733,5.243A10.748,10.748,0,0,0,.007,11.8,31.141,31.141,0,0,0,1.159,18.43c.016.059.031.113.043.172a29.054,29.054,0,0,0,5.1-8.344c.254-.637.488-1.281.68-1.937C7.522,6.45,8.425,2.258,7.194.375" transform="translate(23.427 85.16)" fill="#cadef9"/>
      <g id="Group_33-2" data-name="Group 33" transform="translate(33.359 94.348)" clip-path="url(#clip-path-7)">
        <path id="Path_1085-2" data-name="Path 1085" d="M13.221,24.767Q12.061,18.532,10.9,12.3A26.424,26.424,0,0,0,9.428,6.7C8.6,4.771,4.28-1.159,1.627.2a2.39,2.39,0,0,0-.9.859C-1.424,4.376,1.694,12.2,3.592,15.048c2.375,3.563,6.051,6,9.027,9.078.2.211.4.422.6.641" transform="translate(0.228 0.053)" fill="#cadef9"/>
      </g>
      <g id="Group_34-2" data-name="Group 34" transform="translate(35.144 94.348)" clip-path="url(#clip-path-8)">
        <path id="Path_1087-2" data-name="Path 1087" d="M.848,0A1.829,1.829,0,0,0,0,.2C2.863,4.145,8.918,18.605,10.992,24.125c.2.211.4.422.6.641Q10.434,18.531,9.277,12.3A26.424,26.424,0,0,0,7.8,6.7C7.055,4.965,3.488,0,.848,0" transform="translate(0.07 0.055)" fill="#cadef9"/>
      </g>
      <g id="Group_35-2" data-name="Group 35" transform="translate(31.144 83.133)" clip-path="url(#clip-path-9)">
        <path id="Path_1089-2" data-name="Path 1089" d="M.039,0A1.949,1.949,0,0,0,0,.4V.434c4.687,1.82,11.934,7.984,15.1,10.7a28.734,28.734,0,0,0-2.652-5.508A10.658,10.658,0,0,0,7.254,1.278C5.008.5,2.363.4.039,0" transform="translate(0.414 0.156)" fill="#cadef9"/>
      </g>
      <path id="Path_1091-2" data-name="Path 1091" d="M.008,0,0,.031c1.992,2.332,6.109,7.16,7,8.231s5.519,4.23,7.863,5.777c.121.016.242.027.363.039-1.9-1.762-2.324-4.617-3.82-6.734C10.062,5.437,7.957,4.258,5.922,3.133A39.9,39.9,0,0,0,.008,0" transform="translate(26.566 68.348)" fill="#cadef9"/>
      <path id="Path_1092-2" data-name="Path 1092" d="M0,0A5.365,5.365,0,0,0,.125,1.071C5.531,2.911,13.617,11.926,16.98,15.883a10.535,10.535,0,0,1,1.34.731q-1.764-4.343-3.527-8.68a6.357,6.357,0,0,0-1.129-2.027,6.365,6.365,0,0,0-2.316-1.368C7.723,3.051,3.8.813,0,0" transform="translate(23.426 53.156)" fill="#cadef9"/>
      <path id="Path_1093-2" data-name="Path 1093" d="M.649,0A.711.711,0,0,0,0,.367C2.961,2.25,6.34,6,8.027,8.1a98.988,98.988,0,0,0,7.75,7.875c.164.07.328.137.488.207a15.88,15.88,0,0,1-2-4.746c-1.105-3.5-2.742-7.172-5.957-8.922a27.237,27.237,0,0,0-5.3-1.7A12.52,12.52,0,0,0,.649,0" transform="translate(22.465 37.746)" fill="#cadef9"/>
      <path id="Path_1094-2" data-name="Path 1094" d="M.1,0A2.207,2.207,0,0,0,0,.7,4.88,4.88,0,0,0,.285,2.2C4.336,7.539,15.137,12.59,19.539,14.6c.293.032.582.071.871.122a21.431,21.431,0,0,1-5.133-5.028,24.531,24.531,0,0,0-2.828-3.7A15.711,15.711,0,0,0,7.91,3.328C5.473,2.246,2.691.484.1,0" transform="translate(21.336 22.973)" fill="#cadef9"/>
      <path id="Path_1095-2" data-name="Path 1095" d="M0,0C.988,2.032,3.055,4.094,7.281,5.028a20.577,20.577,0,0,1,12.941,9.5l.027.019a34.387,34.387,0,0,0-3.3-8.492A11.494,11.494,0,0,0,9.976.579,16.2,16.2,0,0,0,6.457.262c-.5,0-1,.012-1.5.02s-1,.023-1.5.023A16.317,16.317,0,0,1,0,0" transform="translate(21.437 12.07)" fill="#cadef9"/>
      <path id="Path_1096-2" data-name="Path 1096" d="M6.035,0C4.844,4.7,1.555,13.832,0,18.055c.016.059.031.113.043.172a29.054,29.054,0,0,0,5.1-8.344c.254-.637.488-1.281.68-1.938a20.274,20.274,0,0,0,.832-5.164A5.2,5.2,0,0,0,6.035,0" transform="translate(24.586 85.535)" fill="#cadef9"/>
      <path id="Path_1097-2" data-name="Path 1097" d="M.6,0,0,.059H.476A.292.292,0,0,0,.6,0" transform="translate(15.133 89.262)" fill="#cadef9"/>
      <path id="Path_1098-2" data-name="Path 1098" d="M9.852,0c-.23.179-.457.371-.676.57C7.715,8.562,2.77,15.136.148,17.984c-.047.1-.094.2-.148.3a16.171,16.171,0,0,0,7.809-8.4c.793-1.765,2.457-5.461,2.457-8.07A3.553,3.553,0,0,0,9.852,0" transform="translate(17.109 69.817)" fill="#cadef9"/>
      <path id="Path_1099-2" data-name="Path 1099" d="M10.023,0C5.555,6.875,1.23,18.668,0,22.492c1.742-2.55,4.648-4.121,6.434-6.644a16.864,16.864,0,0,0,2.082-4.5C9.3,9.059,10.5,5.59,10.5,2.684A6.846,6.846,0,0,0,10.023,0" transform="translate(13.23 53.953)" fill="#cadef9"/>
      <path id="Path_1100-2" data-name="Path 1100" d="M.009,0C-.038,0,.1.742.193,1.894A9.7,9.7,0,0,0,.037.035C.021.012.013,0,.009,0" transform="translate(21.713 32.266)" fill="#cadef9"/>
      <path id="Path_1101-2" data-name="Path 1101" d="M.18,0A16.5,16.5,0,0,1,0,1.9a.593.593,0,0,1,.191.055C.191,1.278.188.622.18,0" transform="translate(21.777 36.57)" fill="#cadef9"/>
      <path id="Path_1102-2" data-name="Path 1102" d="M15.449,0a9.474,9.474,0,0,1-4.281,7.019A67.619,67.619,0,0,0,0,16.039,38.37,38.37,0,0,0,10.758,9.726a23.3,23.3,0,0,0,4.871-5.953c.012-1.211.016-2.492.012-3.718A.593.593,0,0,0,15.449,0" transform="translate(6.328 38.469)" fill="#cadef9"/>
      <path id="Path_1103-2" data-name="Path 1103" d="M0,0C.023.68.039,1.5.051,2.407A21.268,21.268,0,0,0,0,0" transform="translate(21.906 34.16)" fill="#cadef9"/>
      <path id="Path_1104-2" data-name="Path 1104" d="M20.309,0c-.242.043-.488.1-.734.168a32.409,32.409,0,0,1-5.8,7.14C7.879,13.051,2.559,14.387.105,14.644L0,14.719a46.825,46.825,0,0,1,5.359-.25,15.447,15.447,0,0,0,11.2-6.161c1.148-1.535,3.844-5.3,3.844-7.613a2.318,2.318,0,0,0-.1-.7" transform="translate(0.059 22.973)" fill="#cadef9"/>
      <path id="Path_1105-2" data-name="Path 1105" d="M.043,0,0,.687A2.848,2.848,0,0,0,.043,0" transform="translate(20.879 19.235)" fill="#cadef9"/>
      <path id="Path_1106-2" data-name="Path 1106" d="M20.351,0C17.391,1.648,12.184,3.266,6.976,5.617A14,14,0,0,0,.438,11.023c-.148.5-.293,1-.437,1.508C5.133,8.867,12.48,9.008,17,4.6A17.26,17.26,0,0,0,20.351,0" transform="translate(0 14.09)" fill="#cadef9"/>
      <g id="Group_36-2" data-name="Group 36" transform="translate(20.402 0)" clip-path="url(#clip-path-10)">
        <path id="Path_1107-2" data-name="Path 1107" d="M.164,0c-.2,9.047-.258,18.11.063,27.164A242.762,242.762,0,0,0,2.582,54.242,163.95,163.95,0,0,0,8.679,80.7a122.589,122.589,0,0,0,11.047,24.746l.273-.16a122.172,122.172,0,0,1-10.641-24.8,162.54,162.54,0,0,1-5.68-26.406A241.071,241.071,0,0,1,1.726,27.121c-.187-9.015,0-18.043.332-27.066L.164,0" transform="translate(0.083 0)" fill="#cadef9"/>
      </g>
    </g>
    <path id="Path_2509" data-name="Path 2509" d="M288.67,143.779c-3.423-6.6-5-14.451-5.608-21.753A107.983,107.983,0,0,1,283.78,98.5s4.529,6.746,7.548,19.61a105.008,105.008,0,0,1,2.627,25.665Zm14.714,0c3.083-6.388,4.28-15.545,4.673-23.6a148.987,148.987,0,0,0-.2-17.467,109.959,109.959,0,0,0-5.531,12.206c-3.013,7.774-6.2,18.335-6.583,28.859Zm0,0" transform="translate(40.172 175.989)" fill="#acbfef"/>
    <path id="path875" d="M0,251.125c30.6-34.21,30.14-33.864,30.14-33.864l268.357.689L317,251.125Z" transform="translate(50 118.579)" fill="#30507a"/>
    <g id="_5" data-name="5" transform="translate(119.023 196.783)">
      <g id="g15" transform="translate(-0.023 -0.51)" clip-path="url(#clip-path-11)">
        <path id="path13" d="M285.795,113.555c.287.351.574.691.871,1.036C286.369,114.245,286.082,113.905,285.795,113.555Zm-1.233-1.562c.276.367.563.733.855,1.094C285.125,112.726,284.839,112.359,284.562,111.993Zm2.47,3.018c.414.473.834.935,1.27,1.387C287.867,115.945,287.447,115.483,287.033,115.01Zm-2.768-3.416c-.356-.478-.7-.956-1.041-1.445C283.564,110.638,283.909,111.116,284.265,111.594Zm-4.2-6.636c.292.542.59,1.078.9,1.615C280.658,106.037,280.36,105.5,280.068,104.959Zm.967,1.737q1,1.737,2.136,3.384Q282.039,108.43,281.035,106.7Zm-2.3-4.431c-.3-.653-.59-1.318-.866-1.982C278.145,100.947,278.432,101.612,278.735,102.265Zm.372.8c.282.584.579,1.163.877,1.743C279.686,104.225,279.388,103.646,279.107,103.062Zm-3.188-8.394c.042.154.09.308.138.462C276.009,94.976,275.962,94.822,275.919,94.668Zm1.5,4.473c.106.287.218.574.335.855C277.635,99.715,277.524,99.428,277.417,99.141Zm-.483-1.291c.09.25.181.5.276.749C277.115,98.35,277.024,98.1,276.934,97.85Zm-.584-1.748c.058.17.112.345.165.515C276.461,96.448,276.408,96.272,276.349,96.1Zm36.286,32.854c-1.11-3-2.688-5.839-3.358-8.968-.845-3.942-.2-8.033-.085-12.065.213-7.114-1.466-14.642-6.306-19.742A18.6,18.6,0,0,0,283.314,83.6a14,14,0,0,0-7.2,5.69,10.11,10.11,0,0,0-1.179,7.735c-.329,2.189-.6,4.383-.749,6.582a34.386,34.386,0,0,0-2.412,3.257,1.472,1.472,0,0,0-.335.919c.053.584.707.882,1.259,1.068.457.149.919.3,1.376.452a36.891,36.891,0,0,0,.962,7.183,1.632,1.632,0,0,0,.478.956,1.579,1.579,0,0,0,.935.25,15.589,15.589,0,0,0,6.582-1.132q2.239,3,4.186,6.2a82.543,82.543,0,0,1-8.824,9.823,56.028,56.028,0,0,0-5.908,5.977,22.611,22.611,0,0,0-4.627,15.1c-.133.133-.271.255-.4.383a.2.2,0,0,0,.005.319,4.482,4.482,0,0,1-.531-.027,45.055,45.055,0,0,1-2.083-11.1c.138-.133.276-.276.409-.42.638-.707,1.217-1.488,1.753-2.168a49.45,49.45,0,0,0,4.946-7.842,1.823,1.823,0,0,0,.3-1.344,1.238,1.238,0,0,0-1.535-.643,3.546,3.546,0,0,0-1.472,1.068q-1.092,1.124-2.178,2.247a2.98,2.98,0,0,1-1.169.855.257.257,0,0,1-.069.016,31.3,31.3,0,0,1,.425-4.978,31.489,31.489,0,0,0,.754-5.616,6.369,6.369,0,0,0-2.173-5.036,3.02,3.02,0,0,0-1.79-.675,4.536,4.536,0,0,0-2.609,1.248,17.425,17.425,0,0,0-4.691,4.792,14.808,14.808,0,0,0-1.482,7.278,49.07,49.07,0,0,0,.951,9.929c-.037.25-.064.5-.085.754a43.583,43.583,0,0,0,4.059,23.4,8.033,8.033,0,0,0,3.331,4.022,5.93,5.93,0,0,0,5.2-.313,13.428,13.428,0,0,0,3.034-2.242c.011.09.112.159.223.181a12.014,12.014,0,0,1-.244,2.189,23.092,23.092,0,0,1-.627,2.423q-1.187,3.865-2.369,7.73c-.058.191-.117.388-.175.579-.383,1.254-.76,2.518-1.11,3.793-6.62-1.907-13.7-2.263-20.619-2.582-8.538-.393-17.181-.781-25.544.978-2.752.579-5.456,1.387-8.24,1.748a52.04,52.04,0,0,1-6.933.276q-6.351-.048-12.7-.149c-8.022-.133-16.124-.351-23.9-2.3-4.92-1.238-9.669-3.15-14.637-4.133-.351-.069-.707-.133-1.057-.2-5.021-.839-10.54-.478-14.732,2.343,1.238,2.024,3.73,3.315,6.11,3.99,3.039.861,6.354,1.2,8.883,3.081.08.058.154.117.228.175,3.087,2.46,4.808,6.976,8.681,7.65,2.879.5,5.568-1.456,8.442-2.008,4.505-.861,8.835,1.774,13.112,3.448,9.042,3.533,19.057,2.842,28.726,1.222-.08.122-.149.255-.223.388-1.812,3.432-.914,7.858,1.466,10.923s5.982,4.962,9.674,6.163a35.782,35.782,0,0,0,8.245,1.636c4.319.34,8.686-.106,12.979.462,5.435.712,10.525,3.012,15.364,5.578,1.743.919,3.575,2,4.378,3.8a.019.019,0,0,0,.005.016c1.169,2.64-.3,5.8.5,8.569.234.792.648,1.541.818,2.338l-4.58,1.2a2.611,2.611,0,0,0-1.312.611,1.861,1.861,0,0,0,.5,2.646,5.372,5.372,0,0,0,2.917.728c3.007.159,6.551.032,8.256-2.449.93-1.349,1.047-3.076,1.408-4.675a14.781,14.781,0,0,1,4.149-7.332,22.669,22.669,0,0,0,2.964-2.922,6.188,6.188,0,0,0,.8-1.573,6.722,6.722,0,0,0,.351-2.2,13.98,13.98,0,0,0,6.317-3.379c8.793-8.012,10.546-19.455,8.182-30.7-.34-1.61-.622-3.246-.818-4.888a32.636,32.636,0,0,1,.345-10.9c.026-.1.048-.2.069-.308,1.955-8.394,8.091-15.205,10.976-23.328a30.13,30.13,0,0,0,1.477-6.232,6.319,6.319,0,0,0,5.637-3.846c1.254-2.933.622-6.359-.483-9.361" transform="translate(-138.055 -81.816)" fill="#f9b08f"/>
      </g>
      <path id="path17" d="M137.2,90.936a54.559,54.559,0,0,1-27.052-2.263c-.383,1.254-.76,2.518-1.11,3.793a52.117,52.117,0,0,0-1.248,5.488,6.928,6.928,0,0,1-2.911,1.105,19.715,19.715,0,0,1-6.195-.515,78.372,78.372,0,0,0-34.06,1.535c-3.767,1.025-7.788,2.6-9.77,5.929-.08.122-.149.255-.223.388-1.812,3.432-.914,7.858,1.466,10.923s5.982,4.962,9.674,6.163a35.782,35.782,0,0,0,8.245,1.636c4.319.34,8.686-.106,12.979.462,5.435.712,10.524,3.012,15.364,5.578,1.743.919,3.575,2,4.378,3.8a47.88,47.88,0,0,0,16.432-2.848,6.722,6.722,0,0,0,.351-2.2,13.98,13.98,0,0,0,6.317-3.379c8.793-8.012,10.546-19.455,8.182-30.7-.34-1.61-.622-3.246-.818-4.888Zm12.867-40.77a30.129,30.129,0,0,1-1.477,6.232c-2.885,8.123-9.021,14.934-10.976,23.328-.021.106-.042.207-.069.308a68.373,68.373,0,0,1-24.226-2.093,11.022,11.022,0,0,0,.244-2.577,14.153,14.153,0,0,1-3.257,2.449,5.93,5.93,0,0,1-5.2.313,8.033,8.033,0,0,1-3.331-4.022,43.583,43.583,0,0,1-4.059-23.4c.064-.053.133-.1.2-.149a7.423,7.423,0,0,1,1.5-.776,9.464,9.464,0,0,1,7.985.76c.011.234.021.468.032.7a45.056,45.056,0,0,0,2.083,11.1,3.924,3.924,0,0,0,.967-.005,22.666,22.666,0,0,1,4.585-15.774,56.033,56.033,0,0,1,5.908-5.977,82.543,82.543,0,0,0,8.824-9.823q1.642-2.152,3.15-4.41a10.887,10.887,0,0,0,1.286.919c2.874,1.753,6.439,1.966,9.483,3.4a12.874,12.874,0,0,1,4.282,3.3,33.086,33.086,0,0,1,2.067,16.2" transform="translate(19.333 9.671)" fill="#ee2f4b"/>
      <g id="g21" transform="translate(0.008 10.843)" clip-path="url(#clip-path-12)">
        <path id="path19" d="M152.818,175.263c-5.021-.839-10.54-.478-14.732,2.343,1.238,2.024,3.73,3.315,6.11,3.99,3.039.861,6.354,1.2,8.883,3.081.08.058.154.117.228.175a19.615,19.615,0,0,1,.568-9.393c-.351-.069-.707-.133-1.057-.2Zm111.339,48.866c1.169,2.64-.3,5.8.5,8.569.234.792.648,1.541.818,2.338l-4.58,1.2a2.59,2.59,0,0,0-1.312.611,1.861,1.861,0,0,0,.5,2.646,5.372,5.372,0,0,0,2.917.728c3.007.159,6.551.032,8.256-2.449.93-1.349,1.047-3.076,1.408-4.675a14.741,14.741,0,0,1,4.149-7.332,22.3,22.3,0,0,0,2.959-2.922,6.038,6.038,0,0,0,.808-1.573,47.888,47.888,0,0,1-16.438,2.848c.005.005.005.011.011.016Zm.659-84.43c.005.234.016.468.032.7.138-.133.276-.276.409-.42.638-.707,1.211-1.488,1.753-2.168a49.453,49.453,0,0,0,4.946-7.842,1.823,1.823,0,0,0,.3-1.344,1.238,1.238,0,0,0-1.535-.643,3.546,3.546,0,0,0-1.472,1.068q-1.092,1.124-2.178,2.247a3.018,3.018,0,0,1-1.169.855.259.259,0,0,1-.069.016,30.685,30.685,0,0,1,.425-4.978,31.494,31.494,0,0,0,.754-5.616,6.373,6.373,0,0,0-2.178-5.036,2.992,2.992,0,0,0-1.785-.675,4.536,4.536,0,0,0-2.609,1.248,17.35,17.35,0,0,0-4.691,4.792,14.808,14.808,0,0,0-1.482,7.278,49.07,49.07,0,0,0,.951,9.929c-.037.25-.064.5-.085.754.064-.053.133-.1.2-.149a7.423,7.423,0,0,1,1.5-.776,9.465,9.465,0,0,1,7.985.76Zm10.216-26.059a1.632,1.632,0,0,0,.478.956,1.568,1.568,0,0,0,.935.25,15.588,15.588,0,0,0,6.582-1.132q2.239,3,4.186,6.2,1.642-2.152,3.145-4.41a22.255,22.255,0,0,1-2.056-1.95A52.234,52.234,0,0,1,275.537,90.4c-.212,1.254-.42,2.513-.606,3.777-.329,2.189-.6,4.383-.749,6.582a50.992,50.992,0,0,0-.112,5.7,36.485,36.485,0,0,0,.962,7.183Zm19.583,66.452a54.56,54.56,0,0,1-27.052-2.263c.059-.191.117-.388.175-.579q1.179-3.865,2.369-7.73a24.472,24.472,0,0,0,.627-2.423,68.5,68.5,0,0,0,24.226,2.1,32.6,32.6,0,0,0-.345,10.9" transform="translate(-138.086 -90.328)" fill="#f9b08f"/>
        <path id="path1113" d="M236.458,146.793s-2.867,10.121-3.172,10.732,18.063,5.477,27.052,2.263c0,0-.563-8.356.345-10.9Z" transform="translate(-103.81 -70.024)" fill="#ee2f4b"/>
      </g>
      <path id="path23" d="M125.867,60.917a147.484,147.484,0,0,0,10.96-9.9,118,118,0,0,0,9.621-10.142c.287-.356-.3-.574-.553-.329-3.464,3.32-6.731,6.848-10.153,10.216-3.379,3.331-6.922,6.487-10.317,9.8-.266.26.207.542.441.356ZM159.99,30.645c-.244-.361-1.041-.112-.808.335,4.675,9.085-1.015,18.207-7.762,24.274-7.273,6.545-15.38,12.129-22.632,18.7-.207.191.143.409.329.282,4.617-3.294,8.994-6.954,13.425-10.5a139.194,139.194,0,0,0,11.406-9.584c5.881-5.823,11.316-15.545,6.041-23.5ZM138.033,127.23c-11.311,3.512-21.591-3.8-31.032-8.968-7.746-4.24-19.083-8.633-27.254-2.826-.25.181-.005.494.255.377a22.579,22.579,0,0,1,15.263-1.3c5.238,1.286,9.961,4.011,14.583,6.694,8.5,4.925,18.425,10.455,28.513,7.146.866-.282.547-1.392-.329-1.121ZM80.008,98.595c-3.767,1.025-7.788,2.6-9.77,5.929-9.669,1.62-19.684,2.311-28.726-1.222-4.277-1.674-8.607-4.309-13.112-3.448-2.874.553-5.562,2.508-8.442,2.008-3.873-.675-5.594-5.191-8.681-7.65a19.615,19.615,0,0,1,.568-9.393c4.967.983,9.717,2.9,14.637,4.133,7.778,1.95,15.88,2.168,23.9,2.3q6.351.1,12.7.149a52,52,0,0,0,6.933-.276c2.784-.361,5.488-1.169,8.24-1.748,8.362-1.759,17.006-1.371,25.544-.978,6.922.319,14,.675,20.619,2.582a52.118,52.118,0,0,0-1.248,5.488,6.929,6.929,0,0,1-2.911,1.105,19.715,19.715,0,0,1-6.195-.515,78.372,78.372,0,0,0-34.06,1.535" transform="translate(3.952 11.155)" fill="#de1c32"/>
      <path id="path25" d="M95.343,32.712c-2.024,2.991-3,7.177-3.363,10.732-.037.345.531.367.611.053.478-1.9.956-3.8,1.61-5.658.59-1.679,1.4-3.289,1.913-4.994.133-.446-.606-.377-.77-.133Zm-2.215-1.838c-2.672,3.007-4.457,8.24-3.8,12.272a.242.242,0,0,0,.452.005,57.463,57.463,0,0,1,1.429-6.529c.664-1.913,1.652-3.66,2.492-5.493.159-.345-.377-.478-.574-.255ZM88.016,35.22a10.107,10.107,0,0,0-1.355,8.84A.172.172,0,0,0,86.98,44c.138-1.482.021-2.965.282-4.441.255-1.461.845-2.805,1.238-4.229.074-.287-.367-.266-.483-.112ZM104.959,21.2c-.457-.149-.919-.3-1.376-.452-.553-.186-1.206-.483-1.259-1.068a1.473,1.473,0,0,1,.335-.919,34.38,34.38,0,0,1,2.412-3.257,50.992,50.992,0,0,0-.112,5.7" transform="translate(31.034 5.768)" fill="#f68c58"/>
      <g id="g29" transform="translate(135.897 -0.51)" clip-path="url(#clip-path-13)">
        <path id="path27" d="M243.106,111.419a9.918,9.918,0,0,0-3.119.473c-.468.122-.4.664.1.616a9.96,9.96,0,0,0,3.081-.611c.26-.112.26-.457-.059-.478Zm33.868,26.9a6.319,6.319,0,0,1-5.637,3.846,33.086,33.086,0,0,0-2.067-16.2,12.874,12.874,0,0,0-4.282-3.3c-3.044-1.434-6.609-1.647-9.483-3.4a10.891,10.891,0,0,1-1.286-.919,21.667,21.667,0,0,1-2.061-1.95,52.149,52.149,0,0,1-9.2-13.335,3.7,3.7,0,0,1-3.193-.51c-.425-.3.127-.707.489-.531a3.479,3.479,0,0,0,2.332.244,51.74,51.74,0,0,1-3.2-9.021c-.213,1.254-.42,2.513-.606,3.777a10.11,10.11,0,0,1,1.179-7.735,14,14,0,0,1,7.2-5.69,18.6,18.6,0,0,1,19.572,4.585c4.84,5.1,6.519,12.628,6.306,19.742-.117,4.032-.76,8.123.085,12.065.669,3.129,2.247,5.971,3.358,8.968s1.737,6.428.483,9.361" transform="translate(-237.831 -81.816)" fill="#6e1829"/>
      </g>
    </g>
    <g id="Group_173" data-name="Group 173" transform="translate(312.928 270.279)" clip-path="url(#clip-path-14)">
      <path id="Path_2510" data-name="Path 2510" d="M285.055,142.247H281.2c-9.8-14.52-12.025-31.059-12.025-31.059a41.465,41.465,0,0,1,10.275,9.306C280.06,127.8,281.629,135.647,285.055,142.247Zm5.285,0h1.793c.378-10.526,3.57-21.085,6.583-28.859.329-12.962-1.8-20.63-1.8-20.63a107.645,107.645,0,0,0-9.207,23.824A105.044,105.044,0,0,1,290.34,142.247Zm14.1-23.595c-.393,8.049-1.59,17.21-4.673,23.595h3.472c9-11.753,11.478-37.9,11.478-37.9A82.07,82.07,0,0,0,304.442,118.652Zm0,0" transform="translate(-269.14 -92.758)" fill="#c0d5ff"/>
    </g>
    <g id="Group_174" data-name="Group 174" transform="translate(317.966 319.588)" clip-path="url(#clip-path-15)">
      <path id="Path_2512" data-name="Path 2512" d="M305.02,198.152h-21.6c-.169-.27-.335-.542-.5-.814-9.218-15.694-5.984-37.092-5.984-37.092H311.5S314.848,182.394,305.02,198.152Zm0,0" transform="translate(-276.103 -160.066)" fill="#f28caa"/>
    </g>
  </g>
</svg>
