<svg xmlns="http://www.w3.org/2000/svg" xmlns:xlink="http://www.w3.org/1999/xlink" width="319.132" height="124.068" viewBox="0 0 319.132 124.068">
  <defs>
    <clipPath id="clip-path">
      <path id="path2" d="M126.035,116.031h263.4v103.3h-263.4Zm0,0" transform="translate(-126.035 -116.031)"/>
    </clipPath>
    <clipPath id="clip-path-2">
      <path id="path5" d="M140,116H259.59V219.368H140Zm0,0" transform="translate(-140 -116)"/>
    </clipPath>
    <clipPath id="clip-path-3">
      <path id="path8" d="M126.035,142.016h263.4v62.413h-263.4Zm0,0" transform="translate(-126.035 -142.016)"/>
    </clipPath>
    <clipPath id="clip-path-4">
      <path id="Path_2476" data-name="Path 2476" d="M214.734,92.289h11.743v53.969H214.734Zm0,0" transform="translate(-214.734 -92.289)"/>
    </clipPath>
    <clipPath id="clip-path-5">
      <path id="Path_2478" data-name="Path 2478" d="M197,89.379h9.449v55.2H197Zm0,0" transform="translate(-197 -89.379)"/>
    </clipPath>
    <clipPath id="clip-path-6">
      <path id="Path_2481" data-name="Path 2481" d="M191.676,166.594h22.882V193.03H191.676Zm0,0" transform="translate(-191.676 -166.594)"/>
    </clipPath>
  </defs>
  <g id="Group_203" data-name="Group 203" transform="translate(-50 -245.632)">
    <path id="path875" d="M0,251.125c30.6-34.21,30.14-33.864,30.14-33.864l268.357.689L317,251.125Z" transform="translate(50 118.574)" fill="#b74848"/>
    <g id="poses" transform="translate(-50.035 129.632)">
      <g id="g15" transform="translate(126.035 116.049)" clip-path="url(#clip-path)">
        <path id="path13" d="M215.1,189.539c-1.438-.2-2.87-.419-4.272-.633a78.28,78.28,0,0,0-11.254-1.1A24.815,24.815,0,0,0,184.331,165.7a17.3,17.3,0,0,0-11.488-.831,11.774,11.774,0,0,0-5.267,3.437.37.37,0,0,0,.055.1,34.53,34.53,0,0,0-2.3,4.445,37.488,37.488,0,0,0-2.711,9.594,15.084,15.084,0,0,0-2.993,3.824,3.357,3.357,0,0,0-.51,2.576,2.532,2.532,0,0,0,1.978,1.523,4.425,4.425,0,0,0,1.218.061,35.891,35.891,0,0,0,1.3,7.474c.326,1.15.867,2.434,2.009,2.754a3.792,3.792,0,0,0,2.743-.662q3.928-2.15,7.861-4.285c-.241,1.013-.444,2.041-.584,3.079a53,53,0,0,1-12.491,5.74,81.809,81.809,0,0,1-10.831,2.546A54.407,54.407,0,0,1,139.5,172.9a24.918,24.918,0,0,1,5.341-4.972,26.53,26.53,0,0,0,9.669.491,4.237,4.237,0,0,0,2.722-1.106c.972-1.094.664-2.76.916-4.192a5.823,5.823,0,0,1,.247-.916c.891-2.453,3.454-4.1,5.888-5.279,7.481-3.633,15.693-5.581,23.178-9.2,6.264-3.024,12.233-7.61,15.183-13.732a41.43,41.43,0,0,0,5,6.271,246.75,246.75,0,0,1,20.676,26.074,29.679,29.679,0,0,0,1.415,20.991c.332.725.707,1.438,1.094,2.132a28.6,28.6,0,0,1-4.407.664A54.5,54.5,0,0,1,215.1,189.539ZM388.267,207.58c-1.009-1.88-2.349-3.663-2.675-5.772-.658-4.223,2.828-9.084-1.616-12.2a7.343,7.343,0,0,0-4.943-1.186,30.272,30.272,0,0,1-3.877.129c-12.846-.423-24.163-8.809-36.733-11.857-8.532-2.083-17.487-1.647-26.192-2.883-16.074-2.28-31-10.186-47.156-11.776a27.029,27.029,0,0,0-5.784-.006,106.709,106.709,0,0,0-10.554-10.824c-12.036-11.194-24.138-22.448-37.882-31.477-3.253-2.127-6.941-4.192-10.776-3.6-3.6.565-6.368,3.338-8.944,5.888a175.54,175.54,0,0,1-43.1,31.213c-2.815,1.445-5.674,2.821-8.57,4.105a31.393,31.393,0,0,0-9.1,2.434,7.961,7.961,0,0,0-3.577,2.76c-1.168,1.924-.725,4.363-.345,6.584,1.5,8.777,1.278,17.745,2.4,26.571.966,7.591,3.1,15.348,7.654,21.422a71,71,0,0,0,35.441-.057c5.846-1.53,11.715-3.822,17.715-3.1A30.245,30.245,0,0,1,194.9,215.2c1.322.406,2.631.842,3.946,1.21,7.449,2.072,15.3,2,23.03,1.924a76.057,76.057,0,0,0,10.917-.633,29.9,29.9,0,0,0,3.792-.8c7.142-1.979,13.271-6.706,18.1-12.294a73,73,0,0,0,6.055-8.206c1.068-1.652,2.1-3.338,3.092-5.04,8.807,2.724,18.47,1.371,27.745.516a244.051,244.051,0,0,1,70.435,3.737A43.343,43.343,0,0,1,373.28,199.1a19.567,19.567,0,0,1,3.714,2.466c3.589,3.073,5.721,8.278,4.37,12.637a1.548,1.548,0,0,0,1.451,2.022c2.489.025,5-.48,6.121-2.551,1.021-1.874.338-4.211-.669-6.1" transform="translate(-126.036 -116.031)" fill="#f79364"/>
      </g>
      <g id="g19" transform="translate(148.01 116)" clip-path="url(#clip-path-2)">
        <path id="path17" d="M207.076,189.539a24.283,24.283,0,0,1-6.068,18.028,24.615,24.615,0,0,1-14.13,7.629c1.322.406,2.631.842,3.946,1.21,7.449,2.072,15.3,2,23.03,1.924a76.06,76.06,0,0,0,10.917-.633,45.789,45.789,0,0,0-6.374-27.569A54.5,54.5,0,0,1,207.076,189.539Zm50.476-1.205q-.857,1.513-1.745,3.024c-1,1.7-2.024,3.388-3.092,5.04a9.714,9.714,0,0,0-2.741-4c-2.736-2.36-6.461-3.264-10.082-3.484s-7.24.14-10.854-.038a24.772,24.772,0,0,1-3.221-.356,17.607,17.607,0,0,1-4.105-1.193,29.679,29.679,0,0,1-1.415-20.991,246.743,246.743,0,0,0-20.676-26.074,41.429,41.429,0,0,1-5-6.271c-2.95,6.123-8.919,10.708-15.183,13.732-7.485,3.614-15.7,5.563-23.178,9.2-2.434,1.18-5,2.826-5.888,5.279a30.247,30.247,0,0,1-4.991-2.8,16.4,16.4,0,0,1-5.366-6.171,175.54,175.54,0,0,0,43.1-31.213c2.576-2.551,5.348-5.323,8.944-5.888,3.835-.6,7.523,1.468,10.776,3.6,13.743,9.023,25.846,20.277,37.882,31.471a106.706,106.706,0,0,1,10.554,10.824,41.773,41.773,0,0,1,4.4,6.607c3.164,6.024,4.357,13.466,1.88,19.693" transform="translate(-139.991 -115.982)" fill="#403c64"/>
      </g>
      <path id="path21" d="M161.082,178.147a33.348,33.348,0,0,1,1.389-4.5,5.043,5.043,0,0,0,4.068-2.692,3.878,3.878,0,0,0-1.2-4.727,3.32,3.32,0,0,0-3.056-.209,26.93,26.93,0,0,0-3.754-6.442c-2.127-2.834-4.513-5.562-6.042-8.735a.37.37,0,0,1-.055-.1A11.774,11.774,0,0,1,157.7,147.3a17.3,17.3,0,0,1,11.489.831,24.815,24.815,0,0,1,15.238,22.108,25.857,25.857,0,0,0-12.6,2.736c-3.05,1.648-5.562,4.069-8.323,6.165q-1.456,1.1-3.005,2.083c.14-1.039.343-2.066.584-3.079" transform="translate(15.141 17.588)" fill="#612b1f"/>
      <g id="g25" transform="translate(126.035 156.937)" clip-path="url(#clip-path-3)">
        <path id="path23" d="M163.611,182.853c.326,1.15.867,2.434,2.009,2.76a3.827,3.827,0,0,0,2.743-.669q3.928-2.15,7.861-4.285a33.349,33.349,0,0,1,1.389-4.5,5.043,5.043,0,0,0,4.068-2.692,3.878,3.878,0,0,0-1.2-4.727,3.32,3.32,0,0,0-3.056-.209,26.93,26.93,0,0,0-3.754-6.442c-2.127-2.834-4.513-5.562-6.042-8.735a34.53,34.53,0,0,0-2.3,4.445,37.981,37.981,0,0,0-3.018,17.578A35.891,35.891,0,0,0,163.611,182.853Zm47.213-9a78.28,78.28,0,0,0-11.254-1.1,25.856,25.856,0,0,0-12.6,2.736c-3.05,1.648-5.562,4.069-8.316,6.165q-1.466,1.1-3.012,2.083a53,53,0,0,1-12.491,5.74,81.809,81.809,0,0,1-10.831,2.546c-2.858.5-5.728.884-8.6,1.259-.947-5.144-3.407-9.92-5.256-14.831-1.973-5.238-3.289-11.12-1.353-16.376a16.386,16.386,0,0,1,2.392-4.234,24.917,24.917,0,0,1,5.341-4.972c.622-.437,1.242-.848,1.882-1.242.732-.455,1.548-1,1.677-1.844.184-1.205-1.271-2.121-2.483-1.937a6.935,6.935,0,0,0-3.116,1.844,4.746,4.746,0,0,1-3.282,1.421c-1.832-.192-2.9-2.367-2.576-4.175a9.592,9.592,0,0,1,2.526-4.653,31.393,31.393,0,0,0-9.1,2.434,7.918,7.918,0,0,0-3.577,2.76c-1.168,1.924-.725,4.363-.345,6.584,1.5,8.777,1.278,17.745,2.4,26.571.966,7.591,3.1,15.348,7.654,21.422A71.143,71.143,0,0,0,171.94,202c5.846-1.53,11.715-3.822,17.715-3.1a30.246,30.246,0,0,1,5.243,1.235,24.615,24.615,0,0,0,14.13-7.629,24.283,24.283,0,0,0,6.068-18.028C213.658,174.285,212.226,174.063,210.824,173.849Zm47.17,3.5c-2.736-2.36-6.461-3.264-10.082-3.484s-7.24.14-10.854-.038a24.769,24.769,0,0,1-3.221-.356,17.607,17.607,0,0,1-4.105-1.193c.332.725.707,1.438,1.094,2.132a28.6,28.6,0,0,1-4.407.664,45.789,45.789,0,0,1,6.374,27.569,29.905,29.905,0,0,0,3.792-.8c7.142-1.979,13.271-6.706,18.1-12.294a73,73,0,0,0,6.055-8.206A9.714,9.714,0,0,0,257.994,177.345ZM388.935,198.62c-1.124,2.071-3.632,2.576-6.121,2.551a1.551,1.551,0,0,1-1.451-2.028c1.352-4.352-.78-9.558-4.37-12.631a19.567,19.567,0,0,0-3.714-2.466,21.928,21.928,0,0,0,1.876-10.548,30.275,30.275,0,0,0,3.877-.129,7.343,7.343,0,0,1,4.943,1.186c4.444,3.111.958,7.972,1.616,12.2.326,2.109,1.666,3.891,2.675,5.772s1.69,4.223.669,6.1" transform="translate(-126.036 -141.862)" fill="#f79364"/>
        <path id="path978" d="M230.843,167.154c-5.182,13.286-26.37,33.468-41.11,24.028a14.193,14.193,0,0,1-4.337-18.759c1.747-3.064,4.537-6.074,8.038-6.5,2.107-.255,3.239-.583,4.407-.664l-1.094-2.133a18.954,18.954,0,0,1,26.242.774c2.258,2.3,7.006.143,7.854,3.252Z" transform="translate(-93.052 -132.716)" fill="#403c64"/>
      </g>
      <path id="path27" d="M133.416,163.574c-1.935,5.256-.62,11.138,1.353,16.376,1.849,4.911,4.308,9.687,5.256,14.831,2.876-.375,5.747-.762,8.6-1.259a54.407,54.407,0,0,1-12.821-34.182A16.386,16.386,0,0,0,133.416,163.574Zm10.93-23.9c-2.815,1.445-5.674,2.821-8.57,4.105a9.592,9.592,0,0,0-2.526,4.653c-.326,1.808.744,3.983,2.576,4.175a4.746,4.746,0,0,0,3.282-1.421,6.935,6.935,0,0,1,3.116-1.844c1.212-.184,2.667.732,2.483,1.937-.129.848-.946,1.389-1.677,1.844-.64.393-1.26.8-1.882,1.242a26.529,26.529,0,0,0,9.669.491,4.237,4.237,0,0,0,2.722-1.106c.972-1.094.664-2.76.916-4.192a5.825,5.825,0,0,1,.247-.916,30.247,30.247,0,0,1-4.991-2.8A16.4,16.4,0,0,1,144.346,139.676Zm14.278,37.2a4.425,4.425,0,0,1-1.218-.061,2.532,2.532,0,0,1-1.978-1.523,3.357,3.357,0,0,1,.51-2.576,15.085,15.085,0,0,1,2.993-3.824,37.348,37.348,0,0,0-.307,7.984" transform="translate(3.689 13.579)" fill="#f25e44"/>
      <path id="path29" d="M157.273,174.162a8.637,8.637,0,0,1-6.171,2.422c-.4-.025-.59.474-.135.559,2.625.5,5.668-.288,7.174-2.6C158.485,174.02,157.563,173.921,157.273,174.162Zm-5.6-12.362c1.954-1.136,3.681-.645,5.463.467.308.184,1.144-.11.831-.541-1.489-2.1-4.955-1.942-6.7-.282C151,161.7,151.44,161.935,151.675,161.8Zm6.208,3.388c.338-.437-.3-.793-.67-.535a4.866,4.866,0,0,1-5.975.142c-.275-.216-.916.14-.6.461C152.546,167.149,156.106,167.425,157.882,165.188Zm201.334,17.2a43.342,43.342,0,0,0-11.273-3.492,244.051,244.051,0,0,0-70.435-3.737c-9.275.854-18.938,2.208-27.745-.516q.892-1.511,1.745-3.024c2.477-6.227,1.284-13.669-1.88-19.693a42.207,42.207,0,0,0-4.4-6.607,27.028,27.028,0,0,1,5.784.006c16.153,1.591,31.082,9.5,47.156,11.776,8.7,1.235,17.654.8,26.192,2.883,12.57,3.048,23.887,11.433,36.733,11.857a21.929,21.929,0,0,1-1.876,10.548" transform="translate(14.063 16.73)" fill="#272644"/>
    </g>
    <g id="_48" data-name="48" transform="translate(153.224 203.544)">
      <path id="Path_2474" data-name="Path 2474" d="M187.629,120.088c1.87,10.591,5.237,19.843,9.122,26.113,1.5-7.239,1.494-17.095-.374-27.686s-5.236-19.841-9.122-26.113c-1.5,7.24-1.5,17.095.374,27.686" transform="translate(0 -1.119)" fill="#104f44"/>
      <g id="Group_159" data-name="Group 159" transform="translate(204.166 91.212)" clip-path="url(#clip-path-4)">
        <path id="Path_2475" data-name="Path 2475" d="M225.071,120.088c-1.868,10.591-5.234,19.843-9.12,26.113-1.5-7.239-1.5-17.095.374-27.686s5.234-19.841,9.119-26.113c1.5,7.24,1.5,17.095-.374,27.686" transform="translate(-214.784 -92.331)" fill="#0b3a31"/>
      </g>
      <g id="Group_160" data-name="Group 160" transform="translate(192.994 89.379)" clip-path="url(#clip-path-5)">
        <path id="Path_2477" data-name="Path 2477" d="M206.436,116.44c.539,10.744-.682,20.522-3.071,27.514-3.074-6.713-5.264-16.318-5.8-27.061s.682-20.522,3.071-27.514c3.076,6.713,5.266,16.317,5.8,27.061" transform="translate(-197.162 -89.379)" fill="#135447"/>
      </g>
      <path id="Path_2479" data-name="Path 2479" d="M207.751,118.85c-.536,10.744.682,20.522,3.071,27.514,3.076-6.713,5.266-16.317,5.8-27.061s-.682-20.522-3.071-27.514c-3.076,6.71-5.266,16.315-5.8,27.061" transform="translate(-7.938 -0.892)" fill="#165b4e"/>
      <g id="Group_161" data-name="Group 161" transform="translate(189.64 138.02)" clip-path="url(#clip-path-6)">
        <path id="Path_2480" data-name="Path 2480" d="M208.67,193.079H197.432l-5.709-26.364h22.833l-5.886,26.364" transform="translate(-191.693 -166.639)" fill="#443a37"/>
      </g>
    </g>
  </g>
</svg>
